<svg xmlns="http://www.w3.org/2000/svg" xmlns:xlink="http://www.w3.org/1999/xlink" xmlns:lucid="lucid" width="2421.5" height="1002"><g transform="translate(120.5 -99)" lucid:page-tab-id="0_0"><path d="M500 106a6 6 0 0 1 6-6h988a6 6 0 0 1 6 6v988a6 6 0 0 1-6 6H506a6 6 0 0 1-6-6z" fill="#fff" fill-opacity="0"/><path d="M517.95 100h7.97m7.97 0h7.96m7.96 0h7.97m7.96 0h7.97m7.96 0h7.96m7.97 0h7.97m7.97 0h7.96m7.97 0h7.97m7.96 0h7.97m7.97 0h7.97m7.97 0h7.97m7.97 0h7.97m7.98 0h7.97m7.96 0h7.98m7.97 0h7.97m7.96 0h7.97m7.97 0h7.97m7.96 0h7.96m7.97 0h7.96m7.97 0h7.96m7.96 0h7.97m7.97 0h7.97m7.96 0h7.97m7.97 0h7.96m7.97 0h7.97m7.97 0h7.97m7.97 0h7.97m7.97 0h7.98m7.97 0h7.96m7.98 0h7.97m7.97 0h7.96m7.97 0h7.97m7.97 0h7.95m7.97 0h7.97m7.96 0h7.97m7.96 0h7.96m7.97 0h7.97m7.97 0h7.96m7.97 0h7.97m7.96 0h7.97m7.97 0h7.97m7.97 0h7.97m7.97 0h7.97m7.98 0h7.96m7.97 0h7.98m7.97 0h7.97m7.96 0h7.97m7.97 0h7.97m7.95 0h7.97m7.97 0h7.96m7.97 0h7.96m7.96 0h7.97m7.97 0h7.97m7.96 0h7.97m7.97 0h7.96m7.97 0h7.97m7.97 0h7.97m7.97 0h7.97m7.97 0h7.98m7.96 0h7.97m7.98 0h7.97m7.97 0h3.98a6 6 0 0 1 6 6v3.98m0 7.97v7.97m0 7.97v7.95m0 7.97v7.97m0 7.96v7.97m0 7.96v7.96m0 7.97v7.97m0 7.97v7.96m0 7.97v7.97m0 7.97v7.96m0 7.97v7.97m0 7.97v7.97m0 7.97v7.97m0 7.98v7.96m0 7.97v7.98m0 7.97v7.97m0 7.96v7.97m0 7.97v7.97m0 7.96v7.96m0 7.97v7.96m0 7.97v7.96m0 7.96v7.97m0 7.97v7.96m0 7.97v7.97m0 7.97v7.96m0 7.97v7.97m0 7.97v7.97m0 7.97v7.97m0 7.97v7.98m0 7.97v7.96m0 7.98v7.97m0 7.97v7.96m0 7.97v7.97m0 7.97v7.96m0 7.96v7.97m0 7.96v7.97m0 7.96v7.96m0 7.97v7.97m0 7.97v7.96m0 7.97v7.97m0 7.96v7.97m0 7.97v7.97m0 7.97v7.97m0 7.97v7.97m0 7.98v7.97m0 7.96v7.98m0 7.97v7.97m0 7.96v7.97m0 7.97v7.97m0 7.96v7.96m0 7.97v7.96m0 7.97v7.96m0 7.96v7.97m0 7.97v7.97m0 7.96v7.97m0 7.97v7.96m0 7.97v7.97m0 7.97v7.97m0 7.97v7.97m0 7.97v7.98m0 7.96v7.97m0 7.98v7.97m0 7.97v3.98a6 6 0 0 1-6 6h-3.98m-7.97 0h-7.97m-7.97 0h-7.95m-7.97 0h-7.97m-7.96 0h-7.97m-7.96 0h-7.96m-7.97 0h-7.97m-7.97 0h-7.96m-7.97 0h-7.97m-7.96 0h-7.97m-7.97 0h-7.97m-7.97 0h-7.97m-7.97 0h-7.97m-7.98 0h-7.96m-7.97 0h-7.98m-7.97 0h-7.97m-7.96 0h-7.97m-7.97 0h-7.97m-7.95 0h-7.97m-7.97 0h-7.96m-7.97 0h-7.96m-7.96 0h-7.97m-7.97 0h-7.97m-7.96 0h-7.97m-7.97 0h-7.96m-7.97 0h-7.97m-7.97 0h-7.97m-7.97 0h-7.97m-7.97 0h-7.98m-7.96 0h-7.97m-7.98 0h-7.97m-7.97 0h-7.96m-7.97 0h-7.97m-7.97 0h-7.96m-7.96 0h-7.97m-7.96 0h-7.97m-7.96 0h-7.96m-7.97 0h-7.97m-7.97 0h-7.96m-7.97 0h-7.97m-7.96 0h-7.97m-7.97 0h-7.97m-7.97 0h-7.97m-7.97 0h-7.97m-7.98 0h-7.97m-7.96 0h-7.98m-7.97 0h-7.97m-7.96 0h-7.97m-7.97 0h-7.97m-7.96 0h-7.96m-7.97 0h-7.96m-7.97 0h-7.96m-7.96 0h-7.97m-7.97 0h-7.97m-7.96 0h-7.97m-7.97 0h-7.96m-7.97 0h-7.97m-7.97 0h-7.97m-7.97 0h-7.97m-7.97 0h-7.98m-7.97 0h-7.96m-7.98 0h-7.97m-7.97 0H506a6 6 0 0 1-6-6v-3.98m0-7.97v-7.97m0-7.97v-7.95m0-7.97v-7.97m0-7.96v-7.97m0-7.96v-7.96m0-7.97v-7.97m0-7.97v-7.96m0-7.97v-7.97m0-7.96v-7.97m0-7.97v-7.97m0-7.97v-7.97m0-7.97v-7.97m0-7.98v-7.97m0-7.96v-7.98m0-7.97v-7.97m0-7.96v-7.97m0-7.97v-7.97m0-7.96v-7.96m0-7.97v-7.96m0-7.97v-7.96m0-7.96v-7.97m0-7.97v-7.97m0-7.96v-7.97m0-7.97v-7.96m0-7.97v-7.97m0-7.97v-7.97m0-7.97v-7.97m0-7.97v-7.98m0-7.97v-7.96m0-7.98v-7.97m0-7.97v-7.96m0-7.97v-7.97m0-7.97v-7.96m0-7.96v-7.97m0-7.96v-7.97m0-7.96v-7.96m0-7.97v-7.97m0-7.96v-7.97m0-7.97v-7.97m0-7.96v-7.97m0-7.97v-7.97m0-7.97v-7.97m0-7.97v-7.97m0-7.98v-7.96m0-7.97v-7.98m0-7.97v-7.97m0-7.96v-7.97m0-7.97v-7.97m0-7.96v-7.96m0-7.97v-7.96m0-7.97v-7.96m0-7.96v-7.97m0-7.97v-7.97m0-7.96v-7.97m0-7.97v-7.97m0-7.96v-7.97m0-7.97v-7.97m0-7.97v-7.97m0-7.97v-7.98m0-7.97v-7.96m0-7.98v-7.97m0-7.97V106a6 6 0 0 1 6-6h3.98" stroke="#5a6c86" stroke-width="2" fill="none"/><use xlink:href="#a" transform="matrix(1,0,0,1,500,120) translate(362.158203125 21.52777777777778)"/><use xlink:href="#b" transform="matrix(1,0,0,1,500,120) translate(424.47374131944446 21.52777777777778)"/><use xlink:href="#c" transform="matrix(1,0,0,1,500,120) translate(507.42730034722223 21.52777777777778)"/><path d="M2000 800h300v200h-300z" stroke="#198038" stroke-width="2" fill="#fff"/><path d="M2000 800h300v200h-300z" fill-opacity="0"/><path d="M2037.5 852.5c0 .68-.56 1.24-1.25 1.24-.7 0-1.25-.56-1.25-1.25 0-.7.56-1.26 1.25-1.26.7 0 1.25.56 1.25 1.25z" stroke="#000" stroke-opacity="0" stroke-width=".33"/><path d="M2057.5 857.52h-25c-1.4 0-2.5-1.12-2.5-2.5v-5c0-1.38 1.1-2.5 2.5-2.5h25c1.4 0 2.5 1.12 2.5 2.5v5c0 1.38-1.1 2.5-2.5 2.5zm-25-7.5v5h25v-5h-25zM2037.5 840c0 .7-.56 1.26-1.25 1.26-.7 0-1.25-.56-1.25-1.25 0-.68.56-1.24 1.25-1.24.7 0 1.25.56 1.25 1.25z" stroke="#000" stroke-opacity="0" stroke-width=".33"/><path d="M2057.5 845h-25c-1.4 0-2.5-1.12-2.5-2.5v-5c0-1.38 1.1-2.5 2.5-2.5h25c1.4 0 2.5 1.12 2.5 2.5v5c0 1.38-1.1 2.5-2.5 2.5zm-25-7.5v5h25v-5h-25zM2037.5 827.5c0 .68-.56 1.24-1.25 1.24-.7 0-1.25-.56-1.25-1.25 0-.7.56-1.26 1.25-1.26.7 0 1.25.56 1.25 1.25z" stroke="#000" stroke-opacity="0" stroke-width=".33"/><path d="M2057.5 832.5h-25c-1.4 0-2.5-1.12-2.5-2.5v-5c0-1.38 1.1-2.5 2.5-2.5h25c1.4 0 2.5 1.12 2.5 2.5v5c0 1.38-1.1 2.5-2.5 2.5zm-25-7.5v5h25v-5h-25z" stroke="#000" stroke-opacity="0" stroke-width=".33"/><path d="M2025 820h40v40h-40v-40z" stroke="#000" stroke-opacity="0" stroke-width=".33" fill-opacity="0"/><path d="M2000 800h8v80h-8z" fill="#198038"/><use xlink:href="#d" transform="matrix(1,0,0,1,2085,825) translate(0 21.52777777777778)"/><path d="M2000 200h300v200h-300z" stroke="#198038" stroke-width="2" fill="#defbe6"/><path d="M2000 200h300v200h-300z" fill-opacity="0"/><path d="M2037.5 252.5c0 .68-.56 1.24-1.25 1.24-.7 0-1.25-.56-1.25-1.25 0-.7.56-1.26 1.25-1.26.7 0 1.25.56 1.25 1.25z" stroke="#000" stroke-opacity="0" stroke-width=".33"/><path d="M2057.5 257.52h-25c-1.4 0-2.5-1.12-2.5-2.5v-5c0-1.38 1.1-2.5 2.5-2.5h25c1.4 0 2.5 1.12 2.5 2.5v5c0 1.38-1.1 2.5-2.5 2.5zm-25-7.5v5h25v-5h-25zM2037.5 240c0 .7-.56 1.26-1.25 1.26-.7 0-1.25-.56-1.25-1.25 0-.68.56-1.24 1.25-1.24.7 0 1.25.56 1.25 1.25z" stroke="#000" stroke-opacity="0" stroke-width=".33"/><path d="M2057.5 245h-25c-1.4 0-2.5-1.12-2.5-2.5v-5c0-1.38 1.1-2.5 2.5-2.5h25c1.4 0 2.5 1.12 2.5 2.5v5c0 1.38-1.1 2.5-2.5 2.5zm-25-7.5v5h25v-5h-25zM2037.5 227.5c0 .68-.56 1.24-1.25 1.24-.7 0-1.25-.56-1.25-1.25 0-.7.56-1.26 1.25-1.26.7 0 1.25.56 1.25 1.25z" stroke="#000" stroke-opacity="0" stroke-width=".33"/><path d="M2057.5 232.5h-25c-1.4 0-2.5-1.12-2.5-2.5v-5c0-1.38 1.1-2.5 2.5-2.5h25c1.4 0 2.5 1.12 2.5 2.5v5c0 1.38-1.1 2.5-2.5 2.5zm-25-7.5v5h25v-5h-25z" stroke="#000" stroke-opacity="0" stroke-width=".33"/><path d="M2025 220h40v40h-40v-40z" stroke="#000" stroke-opacity="0" stroke-width=".33" fill-opacity="0"/><path d="M2000 200h8v80h-8z" fill="#198038"/><use xlink:href="#e" transform="matrix(1,0,0,1,2085,225) translate(0 21.52777777777778)"/><use xlink:href="#f" transform="matrix(1,0,0,1,2085,225) translate(49.565972222222214 21.52777777777778)"/><path d="M1997 300h-573.26" stroke="#e81313" stroke-width="4" fill="none"/><path d="M1999 301.98h-2.05v-3.96h2.05z" stroke="#e81313" stroke-width=".05" fill="#e81313"/><path d="M1407.47 300l14.27-4.63v9.26z" stroke="#e81313" stroke-width="4" fill="#e81313"/><path d="M1760 246a6 6 0 0 1 6-6h60.88a6 6 0 0 1 6 6v24.9a6 6 0 0 1-6 6H1766a6 6 0 0 1-6-6z" fill="none"/><use xlink:href="#g" transform="matrix(1,0,0,1,1765,245) translate(0 21.58376736111111)"/><path d="M1403.5 900h570.64" stroke="#1071e5" stroke-width="5" fill="none"/><path d="M1403.56 902.48H1401v-4.96h2.56z" stroke="#1071e5" stroke-width=".05" fill="#1071e5"/><path d="M1990.9 900l-14.26 4.63v-9.26z" stroke="#1071e5" stroke-width="5" fill="#1071e5"/><path d="M2150 797V423.74" stroke="#1071e5" stroke-width="4" fill="none"/><path d="M2151.97 799h-3.94v-2.05h3.94z" stroke="#1071e5" stroke-width=".05" fill="#1071e5"/><path d="M2150 407.47l4.64 14.27h-9.28z" stroke="#1071e5" stroke-width="4" fill="#1071e5"/><path d="M1220 648c0 6.63-26.86 12-60 12s-60-5.37-60-12v-96c0-6.63 26.86-12 60-12s60 5.37 60 12z" stroke="#000" stroke-width="2" fill="#fff"/><path d="M1220 552c0 6.63-26.86 12-60 12s-60-5.37-60-12" stroke="#000" stroke-width="2" fill="none"/><use xlink:href="#h" transform="matrix(1,0,0,1,1105,569) translate(23.825954861111114 51.09027777777778)"/><path d="M1400 648c0 6.63-26.86 12-60 12s-60-5.37-60-12v-96c0-6.63 26.86-12 60-12s60 5.37 60 12z" stroke="#000" stroke-width="2" fill="#fff"/><path d="M1400 552c0 6.63-26.86 12-60 12s-60-5.37-60-12" stroke="#000" stroke-width="2" fill="none"/><use xlink:href="#i" transform="matrix(1,0,0,1,1285,568.9999999999999) translate(19.393446180555557 51.09027777777778)"/><path d="M1100 206a6 6 0 0 1 6-6h288a6 6 0 0 1 6 6v188a6 6 0 0 1-6 6h-288a6 6 0 0 1-6-6z" stroke="#000" stroke-width="2" fill="#fff"/><use xlink:href="#j" transform="matrix(1,0,0,1,1105,205) translate(70.68359375000001 104.65277777777777)"/><use xlink:href="#k" transform="matrix(1,0,0,1,1105,205) translate(122.62586805555557 104.65277777777777)"/><path d="M1100 806a6 6 0 0 1 6-6h288a6 6 0 0 1 6 6v188a6 6 0 0 1-6 6h-288a6 6 0 0 1-6-6z" stroke="#000" stroke-width="2" fill="#fff"/><use xlink:href="#l" transform="matrix(1,0,0,1,1105,805) translate(133.74782986111111 104.65277777777777)"/><path d="M600 806a6 6 0 0 1 6-6h288a6 6 0 0 1 6 6v188a6 6 0 0 1-6 6H606a6 6 0 0 1-6-6z" stroke="#000" stroke-width="2" fill="#fff"/><use xlink:href="#m" transform="matrix(1,0,0,1,605,805) translate(70.07052951388889 86.84027777777777)"/><use xlink:href="#n" transform="matrix(1,0,0,1,605,805) translate(160.87999131944446 86.84027777777777)"/><use xlink:href="#o" transform="matrix(1,0,0,1,605,805) translate(54.67881944444444 119.10590277777777)"/><path d="M1401.5 300h3.53" stroke="#3a414a" fill="none"/><path d="M1401.5 300.48h-.5v-.96h.5z" stroke="#3a414a" stroke-width=".05" fill="#3a414a"/><path d="M1419.8 300l-14.27 4.63v-9.26z" stroke="#3a414a" fill="#3a414a"/><path d="M-47.4 859.92c0-8.04 6.6-14.52 14.76-14.52 8.04 0 14.64 6.48 14.64 14.52 0 7.92-6.6 14.4-14.64 14.4-8.16 0-14.76-6.48-14.76-14.4zm31.44 19.2c-1.68-1.08-3.6-2.04-5.52-2.76 5.4-3.6 8.88-9.6 8.88-16.44 0-11.04-9-19.92-20.04-19.92-11.16 0-20.16 8.88-20.16 19.92 0 6.84 3.48 12.84 8.88 16.44-3.48 1.32-6.72 3.24-9.72 5.76l3.6 4.08c4.92-4.2 11.04-6.48 17.28-6.48 4.92 0 9.72 1.44 13.92 3.96 7.56 4.68 12.48 12.84 13.2 21.72h-27.12v5.52h30c1.56 0 2.76-1.2 2.76-2.76 0-11.88-6.12-22.92-15.96-29.04zm-85.92-19.2c0-8.04 6.6-14.52 14.64-14.52 8.16 0 14.64 6.48 14.64 14.52 0 7.92-6.48 14.4-14.64 14.4-8.04 0-14.64-6.48-14.64-14.4zm14.64 45.48h-27.12c1.32-14.4 12.96-25.68 27.12-25.68 4.92 0 9.72 1.44 13.92 3.96 1.2.84 2.28 1.56 3.36 2.52l3.6-4.08c-1.32-1.2-2.64-2.16-4.08-3-1.8-1.08-3.6-2.04-5.52-2.76 5.28-3.6 8.88-9.6 8.88-16.44 0-11.04-9-19.92-20.16-19.92-11.04 0-20.16 8.88-20.16 19.92 0 6.84 3.6 12.84 9 16.44-12.6 4.8-21.6 17.16-21.6 31.8 0 1.56 1.2 2.76 2.76 2.76h30v-5.52zm.12 49.2c1.32-14.52 12.96-25.8 27.12-25.8 4.92 0 9.72 1.44 13.92 3.96 7.44 4.68 12.36 12.84 13.2 21.84h-54.24zm12.48-45.6c0-8.04 6.6-14.4 14.64-14.4 8.16 0 14.76 6.36 14.76 14.4 0 7.92-6.6 14.4-14.76 14.4-8.04 0-14.64-6.48-14.64-14.4zm31.44 19.2c-1.8-1.08-3.6-2.04-5.52-2.76 5.4-3.6 8.88-9.6 8.88-16.44 0-11.04-9-19.92-20.16-19.92-11.04 0-20.04 8.88-20.04 19.92 0 6.84 3.48 12.84 8.88 16.44-12.6 4.8-21.6 17.16-21.6 31.8 0 1.56 1.2 2.76 2.76 2.76h60c1.56 0 2.76-1.2 2.76-2.76 0-11.76-6.12-22.92-15.96-29.04z" stroke="#000" stroke-opacity="0" fill="#232f3e"/><use xlink:href="#p" transform="matrix(1,0,0,1,-150,969) translate(59.34136284722223 21.52777777777778)"/><path d="M2.5 900h571.64" stroke="#000" stroke-width="5" fill="none"/><path d="M2.56 902.48H-.5v-.24l-1.26-4.72h4.32z" stroke="#000" stroke-width=".05"/><path d="M590.9 900l-14.26 4.63v-9.26z" stroke="#000" stroke-width="5"/><path d="M903.5 900h170.64" stroke="#000" stroke-width="5" fill="none"/><path d="M903.56 902.48H901v-4.96h2.56z" stroke="#000" stroke-width=".05"/><path d="M1090.9 900l-14.26 4.63v-9.26z" stroke="#000" stroke-width="5"/><path d="M1250 403.5V464a6 6 0 0 1-6 6h-78a6 6 0 0 0-6 6v38.14" stroke="#54c45e" stroke-width="5" fill="none"/><path d="M1252.47 403.56h-4.94V401h4.94z" stroke="#54c45e" stroke-width=".05" fill="#54c45e"/><path d="M1160 530.9l-4.63-14.26h9.27z" stroke="#54c45e" stroke-width="5" fill="#54c45e"/><path d="M1250 403.5V464a6 6 0 0 0 6 6h78a6 6 0 0 1 6 6v38.14" stroke="#54c45e" stroke-width="5" fill="none"/><path d="M1252.47 403.56h-4.94V401h4.94z" stroke="#54c45e" stroke-width=".05" fill="#54c45e"/><path d="M1340 530.9l-4.63-14.26h9.27z" stroke="#54c45e" stroke-width="5" fill="#54c45e"/><path d="M1250 796.5V736a6 6 0 0 0-6-6h-78a6 6 0 0 1-6-6v-38.14" stroke="#54c45e" stroke-width="5" fill="none"/><path d="M1252.47 799h-4.94v-2.56h4.94z" stroke="#54c45e" stroke-width=".05" fill="#54c45e"/><path d="M1160 669.1l4.63 14.26h-9.27z" stroke="#54c45e" stroke-width="5" fill="#54c45e"/><path d="M1250 796.5V736a6 6 0 0 1 6-6h78a6 6 0 0 0 6-6v-38.14" stroke="#54c45e" stroke-width="5" fill="none"/><path d="M1252.47 799h-4.94v-2.56h4.94z" stroke="#54c45e" stroke-width=".05" fill="#54c45e"/><path d="M1340 669.1l4.63 14.26h-9.27z" stroke="#54c45e" stroke-width="5" fill="#54c45e"/><path d="M1007.36 554.52V576h10.92v-2.4h-7.92v-7.56h6.6v-2.4h-6.6v-6.72h7.92v-2.4h-10.92zm-7.56 0v9.24h-7.92v-9.24h-3V576h3v-9.72h7.92V576h3v-21.48h-3zm-18.24 19.2c-1.92 0-3.36-.72-4.2-1.92-.84-1.32-1.32-3.36-1.32-6.12v-.72c0-2.88.48-4.92 1.32-6.12.96-1.32 2.4-1.92 4.32-1.92 1.08 0 2.28.24 3.6.6v-2.4c-1.32-.6-2.64-.84-3.96-.84-2.76 0-4.92.96-6.24 2.76-1.44 1.92-2.16 4.68-2.16 8.28 0 7.32 2.76 11.04 8.28 11.04 1.56 0 3-.36 4.32-.96v-2.52c-1.68.48-3 .84-3.96.84zm-20.64-5.88l2.76-10.44 2.64 10.44h-5.4zm1.2-13.32L955.88 576H959l1.44-5.76h6.48l1.44 5.76h3.24l-6.24-21.48h-3.24zm-11.52 19.2c-1.92 0-3.36-.72-4.2-1.92-.84-1.32-1.32-3.36-1.32-6.12v-.72c0-2.88.48-4.92 1.32-6.12.96-1.32 2.28-1.92 4.32-1.92.96 0 2.28.24 3.6.6v-2.4c-1.32-.6-2.64-.84-3.96-.84-2.76 0-4.92.96-6.36 2.76-1.44 1.92-2.04 4.68-2.04 8.28 0 7.32 2.76 11.04 8.28 11.04 1.56 0 3-.36 4.32-.96v-2.52c-1.68.48-3.12.84-3.96.84zm83.88 68.64c0 6.72-5.4 12.12-12.12 12.12h-84.72c-6.72 0-12.12-5.4-12.12-12.12v-84.72c0-6.72 5.4-12.12 12.12-12.12h84.72c6.72 0 12.12 5.4 12.12 12.12v84.72zM1022.36 540h-84.72c-9.72 0-17.64 7.92-17.64 17.64v84.72c0 9.72 7.92 17.64 17.64 17.64h84.72c9.72 0 17.64-7.92 17.64-17.64v-84.72c0-9.72-7.92-17.64-17.64-17.64z" stroke="#000" stroke-opacity="0" fill="#c925d1"/><path d="M1250 796.5v-61a6 6 0 0 0-6-6H986a6 6 0 0 1-6-6v-38.64" stroke="#54c45e" stroke-width="5" fill="none"/><path d="M1252.47 799h-4.94v-2.56h4.94z" stroke="#54c45e" stroke-width=".05" fill="#54c45e"/><path d="M980 668.1l4.63 14.26h-9.26z" stroke="#54c45e" stroke-width="5" fill="#54c45e"/><path d="M1760 846a6 6 0 0 1 6-6h60.88a6 6 0 0 1 6 6v24.9a6 6 0 0 1-6 6H1766a6 6 0 0 1-6-6z" fill="none"/><g><use xlink:href="#g" transform="matrix(1,0,0,1,1765,845) translate(0 21.58376736111111)"/></g><path d="M215.3 846a6 6 0 0 1 6-6h57.4a6 6 0 0 1 6 6v24.9a6 6 0 0 1-6 6h-57.4a6 6 0 0 1-6-6z" fill="none"/><g><use xlink:href="#q" transform="matrix(1,0,0,1,220.29664930555555,845) translate(0 21.58376736111111)"/></g><defs><path fill="#5a6c86" d="M180 0v-1490h908v168H370v486h669v168H370v500h727V0H180" id="r"/><path fill="#5a6c86" d="M158 0v-1118h175l1 205c55-151 181-225 313-225 147 0 245 90 285 228 53-141 190-228 352-228 194 0 352 125 352 384V0h-181v-749c0-161-105-225-225-225-151 0-243 103-243 244V0H807v-767c0-124-93-207-219-207-131 0-250 92-250 270V0H158" id="s"/><path fill="#5a6c86" d="M471 26C259 26 90-98 90-318c0-256 228-303 435-329 202-27 287-16 287-108 0-139-79-219-234-219-161 0-248 86-283 164l-173-57c86-203 278-265 451-265 150 0 419 46 419 395V0H815v-152h-12C765-73 660 26 471 26zm31-159c199 0 310-134 310-271v-155c-30 35-226 55-295 64-131 17-246 59-246 186 0 116 97 176 231 176" id="t"/><path fill="#5a6c86" d="M158 0v-1118h180V0H158zm91-1301c-68 0-125-53-125-119s57-119 125-119c69 0 126 53 126 119s-57 119-126 119" id="u"/><path fill="#5a6c86" d="M338-1490V0H158v-1490h180" id="v"/><g id="a"><use transform="matrix(0.010850694444444444,0,0,0.010850694444444444,0,0)" xlink:href="#r"/><use transform="matrix(0.010850694444444444,0,0,0.010850694444444444,13.35720486111111,0)" xlink:href="#s"/><use transform="matrix(0.010850694444444444,0,0,0.010850694444444444,32.82335069444444,0)" xlink:href="#t"/><use transform="matrix(0.010850694444444444,0,0,0.010850694444444444,45.30164930555556,0)" xlink:href="#u"/><use transform="matrix(0.010850694444444444,0,0,0.010850694444444444,50.68359375,0)" xlink:href="#v"/></g><path fill="#5a6c86" d="M158 0v-1118h174v172h12c41-113 157-188 290-188 26 0 70 2 91 3v181c-11-2-60-10-108-10-161 0-279 109-279 260V0H158" id="w"/><path fill="#5a6c86" d="M613 24c-304 0-509-231-509-576 0-350 205-580 509-580 216 0 392 114 453 309l-173 49c-33-115-133-197-280-197-223 0-326 196-326 419 0 220 103 415 326 415 150 0 252-85 285-206l172 49C1010-95 832 24 613 24" id="x"/><path fill="#5a6c86" d="M338-670V0H158v-1490h180v566c73-149 190-208 336-208 226 0 379 139 379 422V0H872v-695c0-172-96-275-252-275-161 0-282 109-282 300" id="y"/><path fill="#5a6c86" d="M481 0L54-1118h197c107 314 236 620 325 951 87-331 217-637 324-951h197L670 0H481" id="z"/><path fill="#5a6c86" d="M628 24c-324 0-524-230-524-574 0-343 198-582 503-582 237 0 487 146 487 559v75H286c9 234 145 362 343 362 132 0 231-58 273-172l174 48C1024-91 857 24 628 24zM287-650h624c-17-190-120-322-304-322-192 0-309 151-320 322" id="A"/><g id="b"><use transform="matrix(0.010850694444444444,0,0,0.010850694444444444,0,0)" xlink:href="#t"/><use transform="matrix(0.010850694444444444,0,0,0.010850694444444444,12.47829861111111,0)" xlink:href="#w"/><use transform="matrix(0.010850694444444444,0,0,0.010850694444444444,20.475260416666664,0)" xlink:href="#x"/><use transform="matrix(0.010850694444444444,0,0,0.010850694444444444,33.170572916666664,0)" xlink:href="#y"/><use transform="matrix(0.010850694444444444,0,0,0.010850694444444444,46.310763888888886,0)" xlink:href="#u"/><use transform="matrix(0.010850694444444444,0,0,0.010850694444444444,51.69270833333333,0)" xlink:href="#z"/><use transform="matrix(0.010850694444444444,0,0,0.010850694444444444,63.74782986111111,0)" xlink:href="#A"/></g><path fill="#5a6c86" d="M613 24c-304 0-509-231-509-576 0-350 205-580 509-580 305 0 511 230 511 580 0 345-206 576-511 576zm0-161c226 0 329-195 329-415 0-222-103-419-329-419-223 0-326 196-326 419 0 220 103 415 326 415" id="B"/><path fill="#5a6c86" d="M158 418v-1536h174v179h20c37-59 106-193 324-193 279 0 474 222 474 576 0 356-194 580-473 580-213 0-288-135-325-197h-14v591H158zm492-555c209 0 317-186 317-421 0-232-105-413-317-413-206 0-314 166-314 413 0 249 111 421 314 421" id="C"/><path fill="#5a6c86" d="M338-670V0H158v-1118h173l1 207c72-158 192-221 342-221 226 0 378 139 378 422V0H872v-695c0-172-96-275-252-275-161 0-282 109-282 300" id="D"/><path fill="#5a6c86" d="M598-1118v154H368v674c0 100 37 144 132 144 23 0 62-6 92-12L629-6c-37 13-88 20-134 20-193 0-307-107-307-290v-688H20v-154h168v-266h180v266h230" id="E"/><path fill="#5a6c86" d="M538 24C308 24 148-78 108-271l171-41c32 123 123 178 257 178 156 0 256-77 256-169 0-77-54-128-164-154l-186-44c-203-48-300-148-300-305 0-192 176-326 414-326 230 0 351 112 402 269l-163 42c-31-80-94-158-238-158-133 0-233 69-233 162 0 83 57 129 188 160l169 40c203 48 298 149 298 302 0 196-179 339-441 339" id="F"/><g id="c"><use transform="matrix(0.010850694444444444,0,0,0.010850694444444444,0,0)" xlink:href="#x"/><use transform="matrix(0.010850694444444444,0,0,0.010850694444444444,12.6953125,0)" xlink:href="#B"/><use transform="matrix(0.010850694444444444,0,0,0.010850694444444444,26.01996527777778,0)" xlink:href="#s"/><use transform="matrix(0.010850694444444444,0,0,0.010850694444444444,45.48611111111111,0)" xlink:href="#C"/><use transform="matrix(0.010850694444444444,0,0,0.010850694444444444,59.09288194444444,0)" xlink:href="#B"/><use transform="matrix(0.010850694444444444,0,0,0.010850694444444444,72.41753472222221,0)" xlink:href="#D"/><use transform="matrix(0.010850694444444444,0,0,0.010850694444444444,85.54687499999999,0)" xlink:href="#A"/><use transform="matrix(0.010850694444444444,0,0,0.010850694444444444,98.50260416666666,0)" xlink:href="#D"/><use transform="matrix(0.010850694444444444,0,0,0.010850694444444444,111.63194444444441,0)" xlink:href="#E"/><use transform="matrix(0.010850694444444444,0,0,0.010850694444444444,118.68489583333331,0)" xlink:href="#F"/></g><path d="M657 26c-323 0-524-166-541-416h195c15 169 171 246 346 246 202 0 356-106 356-265 5-203-294-238-475-293-239-73-380-191-380-389 0-252 224-419 512-419 294 0 499 171 508 396H992c-17-145-151-228-328-228-193 0-321 102-321 242 0 156 175 211 284 241l149 41c160 44 422 134 422 412 0 244-197 432-541 432" id="G"/><path d="M158 0v-1118h175l1 205c55-151 181-225 313-225 147 0 245 90 285 228 53-141 190-228 352-228 194 0 352 125 352 384V0h-181v-749c0-161-105-225-225-225-151 0-243 103-243 244V0H807v-767c0-124-93-207-219-207-131 0-250 92-250 270V0H158" id="H"/><path d="M471 26C259 26 90-98 90-318c0-256 228-303 435-329 202-27 287-16 287-108 0-139-79-219-234-219-161 0-248 86-283 164l-173-57c86-203 278-265 451-265 150 0 419 46 419 395V0H815v-152h-12C765-73 660 26 471 26zm31-159c199 0 310-134 310-271v-155c-30 35-226 55-295 64-131 17-246 59-246 186 0 116 97 176 231 176" id="I"/><path d="M158 0v-1118h174v172h12c41-113 157-188 290-188 26 0 70 2 91 3v181c-11-2-60-10-108-10-161 0-279 109-279 260V0H158" id="J"/><path d="M598-1118v154H368v674c0 100 37 144 132 144 23 0 62-6 92-12L629-6c-37 13-88 20-134 20-193 0-307-107-307-290v-688H20v-154h168v-266h180v266h230" id="K"/><path d="M338-670V0H158v-1490h180v566c73-149 190-208 336-208 226 0 379 139 379 422V0H872v-695c0-172-96-275-252-275-161 0-282 109-282 300" id="L"/><path d="M613 24c-304 0-509-231-509-576 0-350 205-580 509-580 305 0 511 230 511 580 0 345-206 576-511 576zm0-161c226 0 329-195 329-415 0-222-103-419-329-419-223 0-326 196-326 419 0 220 103 415 326 415" id="M"/><path d="M538 24C308 24 148-78 108-271l171-41c32 123 123 178 257 178 156 0 256-77 256-169 0-77-54-128-164-154l-186-44c-203-48-300-148-300-305 0-192 176-326 414-326 230 0 351 112 402 269l-163 42c-31-80-94-158-238-158-133 0-233 69-233 162 0 83 57 129 188 160l169 40c203 48 298 149 298 302 0 196-179 339-441 339" id="N"/><g id="d"><use transform="matrix(0.010850694444444444,0,0,0.010850694444444444,0,0)" xlink:href="#G"/><use transform="matrix(0.010850694444444444,0,0,0.010850694444444444,14.2578125,0)" xlink:href="#H"/><use transform="matrix(0.010850694444444444,0,0,0.010850694444444444,33.72395833333333,0)" xlink:href="#I"/><use transform="matrix(0.010850694444444444,0,0,0.010850694444444444,46.20225694444444,0)" xlink:href="#J"/><use transform="matrix(0.010850694444444444,0,0,0.010850694444444444,54.91536458333333,0)" xlink:href="#K"/><use transform="matrix(0.010850694444444444,0,0,0.010850694444444444,62.18532986111111,0)" xlink:href="#L"/><use transform="matrix(0.010850694444444444,0,0,0.010850694444444444,75.32552083333333,0)" xlink:href="#M"/><use transform="matrix(0.010850694444444444,0,0,0.010850694444444444,88.6501736111111,0)" xlink:href="#N"/><use transform="matrix(0.010850694444444444,0,0,0.010850694444444444,100.37977430555556,0)" xlink:href="#K"/></g><path d="M180 0v-1490h270l367 940c28 72 75 218 110 339 35-117 81-264 110-339l362-940h271V0h-187c2-448-5-837 7-1287-157 497-311 829-483 1287H842C666-458 514-784 354-1284c12 438 5 843 7 1284H180" id="O"/><path d="M158 0v-1118h180V0H158zm91-1301c-68 0-125-53-125-119s57-119 125-119c69 0 126 53 126 119s-57 119-126 119" id="P"/><path d="M338-1490V0H158v-1490h180" id="Q"/><g id="e"><use transform="matrix(0.010850694444444444,0,0,0.010850694444444444,0,0)" xlink:href="#O"/><use transform="matrix(0.010850694444444444,0,0,0.010850694444444444,20.07378472222222,0)" xlink:href="#I"/><use transform="matrix(0.010850694444444444,0,0,0.010850694444444444,32.55208333333333,0)" xlink:href="#P"/><use transform="matrix(0.010850694444444444,0,0,0.010850694444444444,37.93402777777777,0)" xlink:href="#Q"/></g><path d="M628 24c-324 0-524-230-524-574 0-343 198-582 503-582 237 0 487 146 487 559v75H286c9 234 145 362 343 362 132 0 231-58 273-172l174 48C1024-91 857 24 628 24zM287-650h624c-17-190-120-322-304-322-192 0-309 151-320 322" id="R"/><path d="M481 0L54-1118h197c107 314 236 620 325 951 87-331 217-637 324-951h197L670 0H481" id="S"/><g id="f"><use transform="matrix(0.010850694444444444,0,0,0.010850694444444444,0,0)" xlink:href="#N"/><use transform="matrix(0.010850694444444444,0,0,0.010850694444444444,11.729600694444445,0)" xlink:href="#R"/><use transform="matrix(0.010850694444444444,0,0,0.010850694444444444,24.68532986111111,0)" xlink:href="#J"/><use transform="matrix(0.010850694444444444,0,0,0.010850694444444444,33.3984375,0)" xlink:href="#S"/><use transform="matrix(0.010850694444444444,0,0,0.010850694444444444,45.45355902777778,0)" xlink:href="#R"/><use transform="matrix(0.010850694444444444,0,0,0.010850694444444444,58.40928819444444,0)" xlink:href="#J"/></g><path d="M98-1322v-168h1126v168H757V0H567v-1322H98" id="T"/><path d="M180 0v-1490h510c348 0 508 209 508 474 0 266-160 477-507 477H370V0H180zm190-706h312c236 0 327-133 327-310 0-176-91-307-329-307H370v617" id="U"/><g id="g"><use transform="matrix(0.010850694444444444,0,0,0.010850694444444444,0,0)" xlink:href="#G"/><use transform="matrix(0.010850694444444444,0,0,0.010850694444444444,14.2578125,0)" xlink:href="#O"/><use transform="matrix(0.010850694444444444,0,0,0.010850694444444444,34.33159722222222,0)" xlink:href="#T"/><use transform="matrix(0.010850694444444444,0,0,0.010850694444444444,48.67621527777778,0)" xlink:href="#U"/></g><path d="M140 405l46-156c120 36 205 19 263-150l32-93L54-1118h197c107 313 237 620 324 950 87-331 219-637 326-950h196L606 167c-68 178-176 259-334 259-64 0-113-12-132-21" id="V"/><path d="M1096 418H916v-591h-14C865-111 790 24 577 24c-279 0-473-224-473-580 0-354 195-576 474-576 218 0 287 134 324 193h20v-179h174V418zM604-137c203 0 314-172 314-421 0-247-108-413-314-413-212 0-317 181-317 413 0 235 108 421 317 421" id="W"/><g id="h"><use transform="matrix(0.010850694444444444,0,0,0.010850694444444444,0,0)" xlink:href="#H"/><use transform="matrix(0.010850694444444444,0,0,0.010850694444444444,19.140625,0)" xlink:href="#V"/><use transform="matrix(0.010850694444444444,0,0,0.010850694444444444,31.62977430555556,0)" xlink:href="#N"/><use transform="matrix(0.010850694444444444,0,0,0.010850694444444444,43.359375,0)" xlink:href="#W"/><use transform="matrix(0.010850694444444444,0,0,0.010850694444444444,56.96614583333333,0)" xlink:href="#Q"/></g><path d="M613 24c-304 0-509-231-509-576 0-350 205-580 509-580 216 0 392 114 453 309l-173 49c-33-115-133-197-280-197-223 0-326 196-326 419 0 220 103 415 326 415 150 0 252-85 285-206l172 49C1010-95 832 24 613 24" id="X"/><g id="i"><use transform="matrix(0.010850694444444444,0,0,0.010850694444444444,0,0)" xlink:href="#N"/><use transform="matrix(0.010850694444444444,0,0,0.010850694444444444,11.729600694444445,0)" xlink:href="#R"/><use transform="matrix(0.010850694444444444,0,0,0.010850694444444444,24.90234375,0)" xlink:href="#I"/><use transform="matrix(0.010850694444444444,0,0,0.010850694444444444,37.380642361111114,0)" xlink:href="#J"/><use transform="matrix(0.010850694444444444,0,0,0.010850694444444444,45.377604166666664,0)" xlink:href="#X"/><use transform="matrix(0.010850694444444444,0,0,0.010850694444444444,58.072916666666664,0)" xlink:href="#L"/></g><path d="M158 418v-1536h174v179h20c37-59 106-193 324-193 279 0 474 222 474 576 0 356-194 580-473 580-213 0-288-135-325-197h-14v591H158zm492-555c209 0 317-186 317-421 0-232-105-413-317-413-206 0-314 166-314 413 0 249 111 421 314 421" id="Y"/><g id="j"><use transform="matrix(0.010850694444444444,0,0,0.010850694444444444,0,0)" xlink:href="#Y"/><use transform="matrix(0.010850694444444444,0,0,0.010850694444444444,13.606770833333332,0)" xlink:href="#P"/><use transform="matrix(0.010850694444444444,0,0,0.010850694444444444,18.98871527777778,0)" xlink:href="#Q"/><use transform="matrix(0.010850694444444444,0,0,0.010850694444444444,24.37065972222222,0)" xlink:href="#R"/><use transform="matrix(0.010850694444444444,0,0,0.010850694444444444,37.326388888888886,0)" xlink:href="#J"/></g><path d="M577 24c-279 0-473-224-473-580 0-354 195-576 474-576 218 0 287 134 324 193h14v-551h180V0H922v-173h-20C865-111 790 24 577 24zm27-161c203 0 314-172 314-421 0-247-108-413-314-413-212 0-317 181-317 413 0 235 108 421 317 421" id="Z"/><path d="M338-670V0H158v-1118h173l1 207c72-158 192-221 342-221 226 0 378 139 378 422V0H872v-695c0-172-96-275-252-275-161 0-282 109-282 300" id="aa"/><g id="k"><use transform="matrix(0.010850694444444444,0,0,0.010850694444444444,0,0)" xlink:href="#Z"/><use transform="matrix(0.010850694444444444,0,0,0.010850694444444444,13.606770833333332,0)" xlink:href="#I"/><use transform="matrix(0.010850694444444444,0,0,0.010850694444444444,26.085069444444443,0)" xlink:href="#R"/><use transform="matrix(0.010850694444444444,0,0,0.010850694444444444,39.04079861111111,0)" xlink:href="#H"/><use transform="matrix(0.010850694444444444,0,0,0.010850694444444444,58.50694444444444,0)" xlink:href="#M"/><use transform="matrix(0.010850694444444444,0,0,0.010850694444444444,71.83159722222221,0)" xlink:href="#aa"/><use transform="matrix(0.010850694444444444,0,0,0.010850694444444444,84.96093749999999,0)" xlink:href="#N"/></g><path d="M763 24c-353 0-583-224-583-531v-983h190v968c0 214 149 370 393 370 243 0 391-156 391-370v-968h190v983c0 307-230 531-581 531" id="ab"/><path d="M370-1490V0H180v-1490h190" id="ac"/><g id="l"><use transform="matrix(0.010850694444444444,0,0,0.010850694444444444,0,0)" xlink:href="#ab"/><use transform="matrix(0.010850694444444444,0,0,0.010850694444444444,16.536458333333332,0)" xlink:href="#ac"/></g><path d="M180 0v-1490h510c348 0 508 194 508 460 0 198-88 351-276 417L1256 0h-220L726-579c-117 2-238 0-356 1V0H180zm190-747h312c235 0 327-108 327-283 0-177-92-293-329-293H370v576" id="ad"/><g id="m"><use transform="matrix(0.010850694444444444,0,0,0.010850694444444444,0,0)" xlink:href="#ad"/><use transform="matrix(0.010850694444444444,0,0,0.010850694444444444,13.975694444444445,0)" xlink:href="#R"/><use transform="matrix(0.010850694444444444,0,0,0.010850694444444444,26.49739583333333,0)" xlink:href="#S"/><use transform="matrix(0.010850694444444444,0,0,0.010850694444444444,38.55251736111111,0)" xlink:href="#R"/><use transform="matrix(0.010850694444444444,0,0,0.010850694444444444,51.50824652777778,0)" xlink:href="#J"/><use transform="matrix(0.010850694444444444,0,0,0.010850694444444444,59.874131944444436,0)" xlink:href="#N"/><use transform="matrix(0.010850694444444444,0,0,0.010850694444444444,71.60373263888889,0)" xlink:href="#R"/></g><path d="M65 0l393-574-370-544h210c88 136 192 297 267 435 67-142 176-302 264-435h206L661-564 1053 0H844c-94-144-206-310-287-458C484-308 366-142 273 0H65" id="ae"/><g id="n"><use transform="matrix(0.010850694444444444,0,0,0.010850694444444444,0,0)" xlink:href="#Y"/><use transform="matrix(0.010850694444444444,0,0,0.010850694444444444,13.606770833333332,0)" xlink:href="#J"/><use transform="matrix(0.010850694444444444,0,0,0.010850694444444444,21.603732638888886,0)" xlink:href="#M"/><use transform="matrix(0.010850694444444444,0,0,0.010850694444444444,34.42925347222222,0)" xlink:href="#ae"/><use transform="matrix(0.010850694444444444,0,0,0.010850694444444444,46.56032986111111,0)" xlink:href="#V"/></g><path d="M218-607c0-325 108-727 258-974h175c-155 315-250 682-250 974 0 265 78 531 250 886H476C306-10 218-315 218-607" id="af"/><path d="M678-1118v154H420V0H240v-964H20v-154h220v-149c0-194 155-293 318-293 85 0 141 18 168 30l-50 154c-19-6-47-17-97-17-111 0-159 58-159 166v109h258" id="ag"/><path d="M158 0v-1490h180v865h22l478-493h223L593-638 1096 0H865L456-523 338-412V0H158" id="ah"/><path d="M692-1560L212 224H46l480-1784h166" id="ai"/><path d="M611 442c-248 0-391-105-460-228l146-94c47 65 117 165 314 165 178 0 307-82 307-266v-224h-17C863-141 792-18 576-18c-268 0-472-195-472-546 0-346 197-568 476-568 216 0 288 133 326 193h17v-179h175V29c0 289-215 413-487 413zm-5-620c203 0 314-146 314-390 0-237-108-403-314-403-213 0-319 180-319 403 0 230 109 390 319 390" id="aj"/><path d="M295 13c-75 0-135-60-135-135s60-135 135-135 135 60 135 135S370 13 295 13" id="ak"/><path d="M96 279C273-86 346-350 346-607c0-292-95-659-250-974h175c150 246 258 650 258 974 0 297-91 602-258 886H96" id="al"/><g id="o"><use transform="matrix(0.010850694444444444,0,0,0.010850694444444444,0,0)" xlink:href="#af"/><use transform="matrix(0.010850694444444444,0,0,0.010850694444444444,8.10546875,0)" xlink:href="#T"/><use transform="matrix(0.010850694444444444,0,0,0.010850694444444444,21.19140625,0)" xlink:href="#J"/><use transform="matrix(0.010850694444444444,0,0,0.010850694444444444,29.557291666666664,0)" xlink:href="#I"/><use transform="matrix(0.010850694444444444,0,0,0.010850694444444444,42.03559027777777,0)" xlink:href="#R"/><use transform="matrix(0.010850694444444444,0,0,0.010850694444444444,54.991319444444436,0)" xlink:href="#ag"/><use transform="matrix(0.010850694444444444,0,0,0.010850694444444444,63.21614583333333,0)" xlink:href="#P"/><use transform="matrix(0.010850694444444444,0,0,0.010850694444444444,68.59809027777777,0)" xlink:href="#ah"/><use transform="matrix(0.010850694444444444,0,0,0.010850694444444444,80.79427083333333,0)" xlink:href="#ai"/><use transform="matrix(0.010850694444444444,0,0,0.010850694444444444,88.80208333333333,0)" xlink:href="#aa"/><use transform="matrix(0.010850694444444444,0,0,0.010850694444444444,101.93142361111111,0)" xlink:href="#aj"/><use transform="matrix(0.010850694444444444,0,0,0.010850694444444444,115.55989583333331,0)" xlink:href="#P"/><use transform="matrix(0.010850694444444444,0,0,0.010850694444444444,120.94184027777776,0)" xlink:href="#aa"/><use transform="matrix(0.010850694444444444,0,0,0.010850694444444444,134.07118055555554,0)" xlink:href="#ae"/><use transform="matrix(0.010850694444444444,0,0,0.010850694444444444,146.20225694444443,0)" xlink:href="#ai"/><use transform="matrix(0.010850694444444444,0,0,0.010850694444444444,153.33116319444443,0)" xlink:href="#ak"/><use transform="matrix(0.010850694444444444,0,0,0.010850694444444444,159.73307291666666,0)" xlink:href="#ak"/><use transform="matrix(0.010850694444444444,0,0,0.010850694444444444,166.13498263888889,0)" xlink:href="#ak"/><use transform="matrix(0.010850694444444444,0,0,0.010850694444444444,172.53689236111111,0)" xlink:href="#al"/></g><g id="p"><use transform="matrix(0.010850694444444444,0,0,0.010850694444444444,0,0)" xlink:href="#ab"/><use transform="matrix(0.010850694444444444,0,0,0.010850694444444444,16.536458333333332,0)" xlink:href="#N"/><use transform="matrix(0.010850694444444444,0,0,0.010850694444444444,28.266059027777775,0)" xlink:href="#R"/><use transform="matrix(0.010850694444444444,0,0,0.010850694444444444,41.22178819444444,0)" xlink:href="#J"/><use transform="matrix(0.010850694444444444,0,0,0.010850694444444444,49.58767361111111,0)" xlink:href="#N"/></g><path d="M180 0v-1490h190v644h782v-644h190V0h-190v-678H370V0H180" id="am"/><g id="q"><use transform="matrix(0.010850694444444444,0,0,0.010850694444444444,0,0)" xlink:href="#am"/><use transform="matrix(0.010850694444444444,0,0,0.010850694444444444,16.514756944444443,0)" xlink:href="#T"/><use transform="matrix(0.010850694444444444,0,0,0.010850694444444444,30.859375,0)" xlink:href="#T"/><use transform="matrix(0.010850694444444444,0,0,0.010850694444444444,45.20399305555556,0)" xlink:href="#U"/></g></defs></g></svg>