<svg xmlns="http://www.w3.org/2000/svg" xmlns:xlink="http://www.w3.org/1999/xlink" xmlns:lucid="lucid" width="2581.5" height="1302"><g transform="translate(-19.5 101)" lucid:page-tab-id="0_0"><path d="M500-94a6 6 0 0 1 6-6h1688a6 6 0 0 1 6 6v1288a6 6 0 0 1-6 6H506a6 6 0 0 1-6-6z" fill="#fff" fill-opacity="0"/><path d="M517.94-100h7.97m7.97 0h7.96m7.96 0h7.96m7.96 0h7.96m7.96 0h7.96m7.97 0h7.96m7.96 0h7.95m7.96 0h7.98m7.96 0h7.96m7.96 0h7.97m7.96 0h7.95m7.96 0h7.98m7.96 0H717m7.96 0h7.96m7.97 0h7.95m7.96 0h7.97m7.97 0h7.96m7.96 0h7.96m7.97 0h7.95m7.96 0h7.97m7.96 0h7.97m7.96 0h7.96m7.96 0h7.97m7.96 0h7.97m7.96 0h7.96m7.96 0h7.96m7.96 0h7.96m7.97 0h7.97m7.96 0h7.96m7.96 0h7.96m7.96 0h7.96m7.96 0h7.97m7.96 0h7.96m7.95 0h7.96m7.98 0h7.96m7.96 0h7.96m7.97 0h7.96m7.95 0h7.96m7.98 0h7.96m7.96 0h7.96m7.96 0h7.97m7.95 0h7.96m7.97 0h7.97m7.96 0h7.96m7.96 0h7.97m7.95 0h7.96m7.97 0h7.96m7.97 0h7.96m7.96 0h7.96m7.96 0h7.97m7.97 0h7.96m7.96 0h7.96m7.96 0h7.96m7.96 0h7.97m7.97 0h7.96m7.96 0h7.96m7.96 0h7.96m7.96 0h7.96m7.97 0h7.96m7.96 0h7.95m7.96 0h7.98m7.96 0h7.96m7.96 0h7.97m7.96 0h7.95m7.96 0h7.98m7.96 0h7.96m7.96 0h7.96m7.97 0h7.95m7.96 0h7.97m7.97 0h7.96m7.96 0h7.96m7.97 0h7.95m7.96 0h7.97m7.96 0h7.97m7.96 0h7.96m7.96 0h7.96m7.97 0h7.97m7.96 0h7.96m7.96 0h7.96m7.96 0h7.96m7.97 0h7.97m7.96 0h7.96m7.96 0h7.96m7.96 0h7.96m7.96 0h7.97m7.96 0h7.96m7.95 0h7.96m7.98 0h7.96m7.96 0h7.96m7.97 0h7.96m7.95 0h7.96m7.98 0h7.96m7.96 0h7.96m7.96 0h7.97m7.95 0h7.96m7.97 0h7.97m7.96 0h7.96m7.96 0h7.97m7.95 0h7.96m7.97 0h7.96m7.97 0h7.96m7.96 0h7.96m7.96 0h7.97m7.97 0h7.96m7.96 0h7.96m7.96 0h3.98a6 6 0 0 1 6 6v4.03m0 8.05v8.05m0 8.05v8.04m0 8.05v8.05m0 8.05v8.06m0 8.05v8.04m0 8.05v8.05m0 8.05v8.06m0 8.04v8.06m0 8.05v8.04m0 8.05v8.06m0 8.05v8.05m0 8.05v8.04m0 8.06v8.05m0 8.05v8.05m0 8.04v8.06m0 8.04v8.06m0 8.05v8.04m0 8.06v8.04m0 8.06v8.05m0 8.04v8.06m0 8.04v8.06m0 8.05v8.05m0 8.04v8.06m0 8.05v8.05m0 8.05v8.04m0 8.06v8.05m0 8.05v8.05m0 8.04v8.06m0 8.05v8.05m0 8.05v8.04m0 8.06v8.05m0 8.05v8.05m0 8.04v8.06m0 8.05v8.05m0 8.05v8.04m0 8.06v8.05m0 8.05v8.05m0 8.04v8.06m0 8.04v8.05m0 8.06V554m0 8.06v8.04m0 8.05v8.06m0 8.04v8.06m0 8.04v8.05m0 8.06v8.04m0 8.06v8.04m0 8.05v8.06m0 8.04v8.06m0 8.04v8.05m0 8.06V715m0 8.06v8.04m0 8.05v8.06m0 8.04v8.06m0 8.04v8.05m0 8.06v8.04m0 8.06v8.04m0 8.05v8.06m0 8.04v8.06m0 8.04v8.05m0 8.06V876m0 8.06v8.04m0 8.05v8.06m0 8.04v8.06m0 8.04v8.05m0 8.06v8.04m0 8.06v8.04m0 8.05v8.06m0 8.04v8.06m0 8.04v8.05m0 8.05v8.06m0 8.05v8.05m0 8.04v8.05m0 8.06v8.05m0 8.05v8.04m0 8.05v8.06m0 8.05v8.05m0 8.04v8.05m0 8.06v8.05m0 8.05v8.04m0 8.05v4.03a6 6 0 0 1-6 6h-3.98m-7.96 0h-7.97m-7.97 0h-7.96m-7.96 0h-7.95m-7.97 0h-7.96m-7.96 0h-7.96m-7.97 0h-7.96m-7.96 0h-7.95m-7.97 0h-7.96m-7.96 0h-7.96m-7.96 0h-7.97m-7.96 0h-7.95m-7.96 0h-7.98m-7.96 0H1983m-7.96 0h-7.96m-7.97 0h-7.95m-7.96 0h-7.97m-7.97 0h-7.96m-7.96 0h-7.96m-7.97 0h-7.95m-7.96 0h-7.97m-7.96 0h-7.97m-7.96 0h-7.96m-7.96 0h-7.96m-7.97 0h-7.97m-7.96 0h-7.96m-7.96 0h-7.96m-7.96 0h-7.96m-7.97 0h-7.97m-7.96 0h-7.96m-7.96 0h-7.96m-7.96 0h-7.96m-7.96 0h-7.97m-7.96 0h-7.96m-7.95 0h-7.96m-7.98 0h-7.96m-7.96 0h-7.96m-7.97 0h-7.96m-7.95 0h-7.96m-7.98 0h-7.96m-7.96 0h-7.96m-7.96 0h-7.97m-7.95 0h-7.96m-7.97 0h-7.97m-7.96 0h-7.96m-7.96 0h-7.97m-7.95 0h-7.96m-7.97 0h-7.96m-7.97 0h-7.96m-7.96 0h-7.96m-7.96 0h-7.97m-7.97 0h-7.96m-7.96 0h-7.96m-7.96 0h-7.96m-7.96 0h-7.97m-7.97 0h-7.96m-7.96 0h-7.96m-7.96 0h-7.96m-7.96 0h-7.96m-7.97 0h-7.96m-7.96 0h-7.95m-7.96 0h-7.98m-7.96 0h-7.96m-7.96 0h-7.97m-7.96 0h-7.95m-7.96 0h-7.98m-7.96 0H1139m-7.96 0h-7.96m-7.97 0h-7.95m-7.96 0h-7.97m-7.97 0h-7.96m-7.96 0h-7.96m-7.97 0h-7.95m-7.96 0h-7.97m-7.96 0h-7.97m-7.96 0h-7.96m-7.96 0h-7.97m-7.96 0h-7.97m-7.96 0h-7.96m-7.96 0h-7.96m-7.96 0h-7.96m-7.97 0h-7.97m-7.96 0h-7.96m-7.96 0h-7.96m-7.96 0h-7.96m-7.96 0h-7.97m-7.96 0h-7.96m-7.95 0h-7.96m-7.98 0h-7.96m-7.96 0h-7.96m-7.97 0h-7.96m-7.95 0h-7.96m-7.98 0h-7.96m-7.96 0h-7.96m-7.96 0h-7.97m-7.95 0h-7.96m-7.97 0h-7.97m-7.96 0h-7.96m-7.96 0h-7.97m-7.95 0h-7.96m-7.97 0h-7.96m-7.97 0h-7.96m-7.96 0h-7.96m-7.97 0h-7.96m-7.97 0h-7.96m-7.96 0h-7.96m-7.96 0H506a6 6 0 0 1-6-6v-4.03m0-8.05v-8.05m0-8.04v-8.05m0-8.06v-8.05m0-8.05v-8.04m0-8.05v-8.06m0-8.05v-8.05m0-8.04v-8.05m0-8.06v-8.05m0-8.05v-8.04m0-8.05v-8.06m0-8.05v-8.04m0-8.05v-8.06m0-8.04v-8.06m0-8.04v-8.05m0-8.06v-8.04m0-8.06v-8.04m0-8.05v-8.06m0-8.04v-8.06m0-8.04v-8.05m0-8.06V868m0-8.06v-8.04m0-8.05v-8.06m0-8.04v-8.06m0-8.04v-8.05m0-8.06v-8.04m0-8.06v-8.04m0-8.05v-8.06m0-8.04v-8.06m0-8.04v-8.05m0-8.06V707m0-8.06v-8.04m0-8.05v-8.06m0-8.04v-8.06m0-8.04v-8.05m0-8.06v-8.04m0-8.06v-8.04m0-8.05v-8.06m0-8.04v-8.06m0-8.04v-8.05m0-8.06V546m0-8.06v-8.04m0-8.05v-8.06m0-8.04v-8.06m0-8.05v-8.05m0-8.05v-8.04m0-8.06v-8.05m0-8.05v-8.05m0-8.04v-8.06m0-8.05v-8.05m0-8.05v-8.04m0-8.06v-8.05m0-8.05v-8.05m0-8.04v-8.06m0-8.05v-8.05m0-8.05v-8.04m0-8.06v-8.05m0-8.05v-8.05m0-8.04v-8.06m0-8.05v-8.05m0-8.04v-8.06m0-8.04v-8.06m0-8.05v-8.04m0-8.06v-8.04m0-8.06v-8.05m0-8.04v-8.06m0-8.04v-8.06m0-8.05v-8.04m0-8.06v-8.05m0-8.05v-8.05m0-8.04v-8.05m0-8.05v-8.05m0-8.05v-8.05m0-8.05v-8.05m0-8.05v-8.05m0-8.05v-8.05m0-8.05v-8.05m0-8.05v-8.05m0-8.05v-8.05m0-8.06v-8.05m0-8.04V-94a6 6 0 0 1 6-6h3.98" stroke="#5a6c86" stroke-width="2" fill="none"/><use xlink:href="#a" transform="matrix(1,0,0,1,500,-80) translate(675.7983940972222 21.52777777777778)"/><use xlink:href="#b" transform="matrix(1,0,0,1,500,-80) translate(738.1139322916666 21.52777777777778)"/><use xlink:href="#c" transform="matrix(1,0,0,1,500,-80) translate(821.0674913194443 21.52777777777778)"/><use xlink:href="#d" transform="matrix(1,0,0,1,500,-80) translate(871.2953559027777 21.52777777777778)"/><use xlink:href="#e" transform="matrix(1,0,0,1,500,-80) translate(960.4555121527777 21.52777777777778)"/><path d="M1800 0h300v200h-300z" stroke="#198038" stroke-width="2" fill="#fff"/><path d="M1800 0h300v200h-300z" fill-opacity="0"/><path d="M1837.5 52.5c0 .68-.56 1.24-1.25 1.24-.7 0-1.25-.56-1.25-1.25 0-.7.56-1.26 1.25-1.26.7 0 1.25.56 1.25 1.25z" stroke="#000" stroke-opacity="0" stroke-width=".33"/><path d="M1857.5 57.52h-25c-1.4 0-2.5-1.12-2.5-2.5v-5c0-1.38 1.1-2.5 2.5-2.5h25c1.4 0 2.5 1.12 2.5 2.5v5c0 1.38-1.1 2.5-2.5 2.5zm-25-7.5v5h25v-5h-25zM1837.5 40c0 .7-.56 1.26-1.25 1.26-.7 0-1.25-.56-1.25-1.25 0-.68.56-1.24 1.25-1.24.7 0 1.25.56 1.25 1.25z" stroke="#000" stroke-opacity="0" stroke-width=".33"/><path d="M1857.5 45h-25c-1.4 0-2.5-1.12-2.5-2.5v-5c0-1.38 1.1-2.5 2.5-2.5h25c1.4 0 2.5 1.12 2.5 2.5v5c0 1.38-1.1 2.5-2.5 2.5zm-25-7.5v5h25v-5h-25zM1837.5 27.5c0 .68-.56 1.24-1.25 1.24-.7 0-1.25-.56-1.25-1.25 0-.7.56-1.26 1.25-1.26.7 0 1.25.56 1.25 1.25z" stroke="#000" stroke-opacity="0" stroke-width=".33"/><path d="M1857.5 32.5h-25c-1.4 0-2.5-1.12-2.5-2.5v-5c0-1.38 1.1-2.5 2.5-2.5h25c1.4 0 2.5 1.12 2.5 2.5v5c0 1.38-1.1 2.5-2.5 2.5zm-25-7.5v5h25v-5h-25z" stroke="#000" stroke-opacity="0" stroke-width=".33"/><path d="M1825 20h40v40h-40V20z" stroke="#000" stroke-opacity="0" stroke-width=".33" fill-opacity="0"/><path d="M1800 0h8v80h-8z" fill="#198038"/><use xlink:href="#f" transform="matrix(1,0,0,1,1885,25) translate(0 21.52777777777778)"/><path d="M1000 440h300v200h-300z" stroke="#198038" stroke-width="2" fill="#fff"/><path d="M1000 440h300v200h-300z" fill-opacity="0"/><path d="M1037.5 492.5c0 .68-.56 1.24-1.25 1.24-.7 0-1.25-.56-1.25-1.25 0-.7.56-1.26 1.25-1.26.7 0 1.25.56 1.25 1.25z" stroke="#000" stroke-opacity="0" stroke-width=".33"/><path d="M1057.5 497.52h-25c-1.4 0-2.5-1.12-2.5-2.5v-5c0-1.38 1.1-2.5 2.5-2.5h25c1.4 0 2.5 1.12 2.5 2.5v5c0 1.38-1.1 2.5-2.5 2.5zm-25-7.5v5h25v-5h-25zM1037.5 480c0 .7-.56 1.26-1.25 1.26-.7 0-1.25-.56-1.25-1.25 0-.68.56-1.24 1.25-1.24.7 0 1.25.56 1.25 1.25z" stroke="#000" stroke-opacity="0" stroke-width=".33"/><path d="M1057.5 485h-25c-1.4 0-2.5-1.12-2.5-2.5v-5c0-1.38 1.1-2.5 2.5-2.5h25c1.4 0 2.5 1.12 2.5 2.5v5c0 1.38-1.1 2.5-2.5 2.5zm-25-7.5v5h25v-5h-25zM1037.5 467.5c0 .68-.56 1.24-1.25 1.24-.7 0-1.25-.56-1.25-1.25 0-.7.56-1.26 1.25-1.26.7 0 1.25.56 1.25 1.25z" stroke="#000" stroke-opacity="0" stroke-width=".33"/><path d="M1057.5 472.5h-25c-1.4 0-2.5-1.12-2.5-2.5v-5c0-1.38 1.1-2.5 2.5-2.5h25c1.4 0 2.5 1.12 2.5 2.5v5c0 1.38-1.1 2.5-2.5 2.5zm-25-7.5v5h25v-5h-25z" stroke="#000" stroke-opacity="0" stroke-width=".33"/><path d="M1025 460h40v40h-40v-40z" stroke="#000" stroke-opacity="0" stroke-width=".33" fill-opacity="0"/><path d="M1000 440h8v80h-8z" fill="#198038"/><use xlink:href="#g" transform="matrix(1,0,0,1,1085,465) translate(0 21.52777777777778)"/><use xlink:href="#h" transform="matrix(1,0,0,1,1085,465) translate(82.07465277777779 21.52777777777778)"/><use xlink:href="#i" transform="matrix(1,0,0,1,1085,465) translate(141.34114583333334 21.52777777777778)"/><path d="M2300 860h300v200h-300z" stroke="#198038" stroke-width="2" fill="#defbe6"/><path d="M2300 860h300v200h-300z" fill-opacity="0"/><path d="M2337.5 912.5c0 .68-.56 1.24-1.25 1.24-.7 0-1.25-.56-1.25-1.25 0-.7.56-1.26 1.25-1.26.7 0 1.25.56 1.25 1.25z" stroke="#000" stroke-opacity="0" stroke-width=".33"/><path d="M2357.5 917.52h-25c-1.4 0-2.5-1.12-2.5-2.5v-5c0-1.38 1.1-2.5 2.5-2.5h25c1.4 0 2.5 1.12 2.5 2.5v5c0 1.38-1.1 2.5-2.5 2.5zm-25-7.5v5h25v-5h-25zM2337.5 900c0 .7-.56 1.26-1.25 1.26-.7 0-1.25-.56-1.25-1.25 0-.68.56-1.24 1.25-1.24.7 0 1.25.56 1.25 1.25z" stroke="#000" stroke-opacity="0" stroke-width=".33"/><path d="M2357.5 905h-25c-1.4 0-2.5-1.12-2.5-2.5v-5c0-1.38 1.1-2.5 2.5-2.5h25c1.4 0 2.5 1.12 2.5 2.5v5c0 1.38-1.1 2.5-2.5 2.5zm-25-7.5v5h25v-5h-25zM2337.5 887.5c0 .68-.56 1.24-1.25 1.24-.7 0-1.25-.56-1.25-1.25 0-.7.56-1.26 1.25-1.26.7 0 1.25.56 1.25 1.25z" stroke="#000" stroke-opacity="0" stroke-width=".33"/><path d="M2357.5 892.5h-25c-1.4 0-2.5-1.12-2.5-2.5v-5c0-1.38 1.1-2.5 2.5-2.5h25c1.4 0 2.5 1.12 2.5 2.5v5c0 1.38-1.1 2.5-2.5 2.5zm-25-7.5v5h25v-5h-25z" stroke="#000" stroke-opacity="0" stroke-width=".33"/><path d="M2325 880h40v40h-40v-40z" stroke="#000" stroke-opacity="0" stroke-width=".33" fill-opacity="0"/><path d="M2300 860h8v80h-8z" fill="#198038"/><use xlink:href="#j" transform="matrix(1,0,0,1,2385,885) translate(0 21.52777777777778)"/><use xlink:href="#k" transform="matrix(1,0,0,1,2385,885) translate(49.565972222222214 21.52777777777778)"/><path d="M1000 0h300v200h-300z" stroke="#198038" stroke-width="2" fill="#fff"/><path d="M1000 0h300v200h-300z" fill-opacity="0"/><path d="M1037.5 52.5c0 .68-.56 1.24-1.25 1.24-.7 0-1.25-.56-1.25-1.25 0-.7.56-1.26 1.25-1.26.7 0 1.25.56 1.25 1.25z" stroke="#000" stroke-opacity="0" stroke-width=".33"/><path d="M1057.5 57.52h-25c-1.4 0-2.5-1.12-2.5-2.5v-5c0-1.38 1.1-2.5 2.5-2.5h25c1.4 0 2.5 1.12 2.5 2.5v5c0 1.38-1.1 2.5-2.5 2.5zm-25-7.5v5h25v-5h-25zM1037.5 40c0 .7-.56 1.26-1.25 1.26-.7 0-1.25-.56-1.25-1.25 0-.68.56-1.24 1.25-1.24.7 0 1.25.56 1.25 1.25z" stroke="#000" stroke-opacity="0" stroke-width=".33"/><path d="M1057.5 45h-25c-1.4 0-2.5-1.12-2.5-2.5v-5c0-1.38 1.1-2.5 2.5-2.5h25c1.4 0 2.5 1.12 2.5 2.5v5c0 1.38-1.1 2.5-2.5 2.5zm-25-7.5v5h25v-5h-25zM1037.5 27.5c0 .68-.56 1.24-1.25 1.24-.7 0-1.25-.56-1.25-1.25 0-.7.56-1.26 1.25-1.26.7 0 1.25.56 1.25 1.25z" stroke="#000" stroke-opacity="0" stroke-width=".33"/><path d="M1057.5 32.5h-25c-1.4 0-2.5-1.12-2.5-2.5v-5c0-1.38 1.1-2.5 2.5-2.5h25c1.4 0 2.5 1.12 2.5 2.5v5c0 1.38-1.1 2.5-2.5 2.5zm-25-7.5v5h25v-5h-25z" stroke="#000" stroke-opacity="0" stroke-width=".33"/><path d="M1025 20h40v40h-40V20z" stroke="#000" stroke-opacity="0" stroke-width=".33" fill-opacity="0"/><path d="M1000 0h8v80h-8z" fill="#198038"/><use xlink:href="#l" transform="matrix(1,0,0,1,1085,25) translate(0 21.52777777777778)"/><use xlink:href="#m" transform="matrix(1,0,0,1,1085,25) translate(28.75434027777778 21.52777777777778)"/><path d="M1000 860h300v200h-300z" stroke="#198038" stroke-width="2" fill="#fff"/><path d="M1000 860h300v200h-300z" fill-opacity="0"/><path d="M1037.5 912.5c0 .68-.56 1.24-1.25 1.24-.7 0-1.25-.56-1.25-1.25 0-.7.56-1.26 1.25-1.26.7 0 1.25.56 1.25 1.25z" stroke="#000" stroke-opacity="0" stroke-width=".33"/><path d="M1057.5 917.52h-25c-1.4 0-2.5-1.12-2.5-2.5v-5c0-1.38 1.1-2.5 2.5-2.5h25c1.4 0 2.5 1.12 2.5 2.5v5c0 1.38-1.1 2.5-2.5 2.5zm-25-7.5v5h25v-5h-25zM1037.5 900c0 .7-.56 1.26-1.25 1.26-.7 0-1.25-.56-1.25-1.25 0-.68.56-1.24 1.25-1.24.7 0 1.25.56 1.25 1.25z" stroke="#000" stroke-opacity="0" stroke-width=".33"/><path d="M1057.5 905h-25c-1.4 0-2.5-1.12-2.5-2.5v-5c0-1.38 1.1-2.5 2.5-2.5h25c1.4 0 2.5 1.12 2.5 2.5v5c0 1.38-1.1 2.5-2.5 2.5zm-25-7.5v5h25v-5h-25zM1037.5 887.5c0 .68-.56 1.24-1.25 1.24-.7 0-1.25-.56-1.25-1.25 0-.7.56-1.26 1.25-1.26.7 0 1.25.56 1.25 1.25z" stroke="#000" stroke-opacity="0" stroke-width=".33"/><path d="M1057.5 892.5h-25c-1.4 0-2.5-1.12-2.5-2.5v-5c0-1.38 1.1-2.5 2.5-2.5h25c1.4 0 2.5 1.12 2.5 2.5v5c0 1.38-1.1 2.5-2.5 2.5zm-25-7.5v5h25v-5h-25z" stroke="#000" stroke-opacity="0" stroke-width=".33"/><path d="M1025 880h40v40h-40v-40z" stroke="#000" stroke-opacity="0" stroke-width=".33" fill-opacity="0"/><path d="M1000 860h8v80h-8z" fill="#198038"/><use xlink:href="#n" transform="matrix(1,0,0,1,1085,885) translate(0 21.52777777777778)"/><use xlink:href="#k" transform="matrix(1,0,0,1,1085,885) translate(41.48220486111111 21.52777777777778)"/><path d="M1400 440h300v200h-300z" stroke="#198038" stroke-width="2" fill="#fff"/><path d="M1400 440h300v200h-300z" fill-opacity="0"/><path d="M1437.5 492.5c0 .68-.56 1.24-1.25 1.24-.7 0-1.25-.56-1.25-1.25 0-.7.56-1.26 1.25-1.26.7 0 1.25.56 1.25 1.25z" stroke="#000" stroke-opacity="0" stroke-width=".33"/><path d="M1457.5 497.52h-25c-1.4 0-2.5-1.12-2.5-2.5v-5c0-1.38 1.1-2.5 2.5-2.5h25c1.4 0 2.5 1.12 2.5 2.5v5c0 1.38-1.1 2.5-2.5 2.5zm-25-7.5v5h25v-5h-25zM1437.5 480c0 .7-.56 1.26-1.25 1.26-.7 0-1.25-.56-1.25-1.25 0-.68.56-1.24 1.25-1.24.7 0 1.25.56 1.25 1.25z" stroke="#000" stroke-opacity="0" stroke-width=".33"/><path d="M1457.5 485h-25c-1.4 0-2.5-1.12-2.5-2.5v-5c0-1.38 1.1-2.5 2.5-2.5h25c1.4 0 2.5 1.12 2.5 2.5v5c0 1.38-1.1 2.5-2.5 2.5zm-25-7.5v5h25v-5h-25zM1437.5 467.5c0 .68-.56 1.24-1.25 1.24-.7 0-1.25-.56-1.25-1.25 0-.7.56-1.26 1.25-1.26.7 0 1.25.56 1.25 1.25z" stroke="#000" stroke-opacity="0" stroke-width=".33"/><path d="M1457.5 472.5h-25c-1.4 0-2.5-1.12-2.5-2.5v-5c0-1.38 1.1-2.5 2.5-2.5h25c1.4 0 2.5 1.12 2.5 2.5v5c0 1.38-1.1 2.5-2.5 2.5zm-25-7.5v5h25v-5h-25z" stroke="#000" stroke-opacity="0" stroke-width=".33"/><path d="M1425 460h40v40h-40v-40z" stroke="#000" stroke-opacity="0" stroke-width=".33" fill-opacity="0"/><path d="M1400 440h8v80h-8z" fill="#198038"/><use xlink:href="#g" transform="matrix(1,0,0,1,1485,465) translate(0 21.52777777777778)"/><use xlink:href="#h" transform="matrix(1,0,0,1,1485,465) translate(82.07465277777779 21.52777777777778)"/><use xlink:href="#o" transform="matrix(1,0,0,1,1485,465) translate(141.34114583333334 21.52777777777778)"/><path d="M1150 223.74V437" stroke="#008a0e" stroke-width="4" fill="none"/><path d="M1150 207.47l4.63 14.27h-9.27z" stroke="#008a0e" stroke-width="4" fill="#008a0e"/><path d="M1151.97 439h-3.94v-2.05h3.94z" stroke="#008a0e" stroke-width=".05" fill="#008a0e"/><path d="M2103.5 100H2444a6 6 0 0 1 6 6v728.14" stroke="#1071e5" stroke-width="5" fill="none"/><path d="M2103.56 102.47H2101v-4.94h2.56z" stroke="#1071e5" stroke-width=".05" fill="#1071e5"/><path d="M2450 850.9l-4.64-14.26h9.28z" stroke="#1071e5" stroke-width="5" fill="#1071e5"/><path d="M1900 906a6 6 0 0 1 6-6h60.88a6 6 0 0 1 6 6v24.9a6 6 0 0 1-6 6H1906a6 6 0 0 1-6-6z" fill="none"/><use xlink:href="#p" transform="matrix(1,0,0,1,1905,905) translate(0 21.58376736111111)"/><path d="M1340 126a6 6 0 0 1 6-6h257.36a6 6 0 0 1 6 6v24.9a6 6 0 0 1-6 6H1346a6 6 0 0 1-6-6z" fill="none"/><use xlink:href="#q" transform="matrix(1,0,0,1,1345,125) translate(0 21.58376736111111)"/><use xlink:href="#r" transform="matrix(1,0,0,1,1345,125) translate(86.24131944444444 21.58376736111111)"/><use xlink:href="#s" transform="matrix(1,0,0,1,1345,125) translate(159.88498263888889 21.58376736111111)"/><use xlink:href="#t" transform="matrix(1,0,0,1,1345,125) translate(196.484375 21.58376736111111)"/><path d="M1303 100h473.26" stroke="#1071e5" stroke-width="4" fill="none"/><path d="M1303.05 101.97H1301v-3.94h2.05z" stroke="#1071e5" stroke-width=".05" fill="#1071e5"/><path d="M1792.53 100l-14.27 4.64v-9.28z" stroke="#1071e5" stroke-width="4" fill="#1071e5"/><path d="M1150 857V756a6 6 0 0 1 6-6h388a6 6 0 0 0 6-6v-80.26" stroke="#e81313" stroke-width="4" fill="none"/><path d="M1151.97 859h-3.94v-2.05h3.94z" stroke="#e81313" stroke-width=".05" fill="#e81313"/><path d="M1550 647.47l4.63 14.27h-9.27z" stroke="#e81313" stroke-width="4" fill="#e81313"/><path d="M1150 857V756a6 6 0 0 0-6-6H756a6 6 0 0 1-6-6v-80.26" stroke="#e81313" stroke-width="4" fill="none"/><path d="M1151.97 859h-3.94v-2.05h3.94z" stroke="#e81313" stroke-width=".05" fill="#e81313"/><path d="M750 647.47l4.63 14.27h-9.26z" stroke="#e81313" stroke-width="4" fill="#e81313"/><path d="M1150 855.33v-191.6M1150 857.33" stroke="#e81313" stroke-width="4" fill="none"/><path d="M1150 647.47l4.63 14.27h-9.27z" stroke="#e81313" stroke-width="4" fill="#e81313"/><path d="M600 440h300v200H600z" stroke="#198038" stroke-width="2" fill="#fff"/><path d="M600 440h300v200H600z" fill-opacity="0"/><path d="M637.5 492.5c0 .68-.56 1.24-1.25 1.24-.7 0-1.25-.56-1.25-1.25 0-.7.56-1.26 1.25-1.26.7 0 1.25.56 1.25 1.25z" stroke="#000" stroke-opacity="0" stroke-width=".33"/><path d="M657.5 497.52h-25c-1.4 0-2.5-1.12-2.5-2.5v-5c0-1.38 1.1-2.5 2.5-2.5h25c1.4 0 2.5 1.12 2.5 2.5v5c0 1.38-1.1 2.5-2.5 2.5zm-25-7.5v5h25v-5h-25zM637.5 480c0 .7-.56 1.26-1.25 1.26-.7 0-1.25-.56-1.25-1.25 0-.68.56-1.24 1.25-1.24.7 0 1.25.56 1.25 1.25z" stroke="#000" stroke-opacity="0" stroke-width=".33"/><path d="M657.5 485h-25c-1.4 0-2.5-1.12-2.5-2.5v-5c0-1.38 1.1-2.5 2.5-2.5h25c1.4 0 2.5 1.12 2.5 2.5v5c0 1.38-1.1 2.5-2.5 2.5zm-25-7.5v5h25v-5h-25zM637.5 467.5c0 .68-.56 1.24-1.25 1.24-.7 0-1.25-.56-1.25-1.25 0-.7.56-1.26 1.25-1.26.7 0 1.25.56 1.25 1.25z" stroke="#000" stroke-opacity="0" stroke-width=".33"/><path d="M657.5 472.5h-25c-1.4 0-2.5-1.12-2.5-2.5v-5c0-1.38 1.1-2.5 2.5-2.5h25c1.4 0 2.5 1.12 2.5 2.5v5c0 1.38-1.1 2.5-2.5 2.5zm-25-7.5v5h25v-5h-25z" stroke="#000" stroke-opacity="0" stroke-width=".33"/><path d="M625 460h40v40h-40v-40z" stroke="#000" stroke-opacity="0" stroke-width=".33" fill-opacity="0"/><path d="M600 440h8v80h-8z" fill="#198038"/><use xlink:href="#g" transform="matrix(1,0,0,1,685,465) translate(0 21.52777777777778)"/><use xlink:href="#h" transform="matrix(1,0,0,1,685,465) translate(82.07465277777779 21.52777777777778)"/><use xlink:href="#u" transform="matrix(1,0,0,1,685,465) translate(141.34114583333334 21.52777777777778)"/><path d="M2297 960h-973.26" stroke="#e81313" stroke-width="4" fill="none"/><path d="M2299 961.98h-2.05V958h2.05z" stroke="#e81313" stroke-width=".05" fill="#e81313"/><path d="M1307.47 960l14.27-4.63v9.26z" stroke="#e81313" stroke-width="4" fill="#e81313"/><path d="M1156.53 709.1a6 6 0 0 1 6-6h60.88a6 6 0 0 1 6 6V734a6 6 0 0 1-6 6h-60.87a6 6 0 0 1-6-6z" fill="none"/><use xlink:href="#p" transform="matrix(1,0,0,1,1161.5277777777778,708.1019791666666) translate(0 21.58376736111111)"/><path d="M1150 223.74V314a6 6 0 0 0 6 6h388a6 6 0 0 1 6 6v111" stroke="#008a0e" stroke-width="4" fill="none"/><path d="M1150 207.47l4.63 14.27h-9.27z" stroke="#008a0e" stroke-width="4" fill="#008a0e"/><path d="M1551.97 439h-3.94v-2.05h3.94z" stroke="#008a0e" stroke-width=".05" fill="#008a0e"/><path d="M1160 346a6 6 0 0 1 6-6h57.4a6 6 0 0 1 6 6v24.9a6 6 0 0 1-6 6H1166a6 6 0 0 1-6-6z" fill="none"/><g><use xlink:href="#v" transform="matrix(1,0,0,1,1165,345) translate(0 21.58376736111111)"/></g><path d="M1150 223.74V314a6 6 0 0 1-6 6H756a6 6 0 0 0-6 6v111" stroke="#008a0e" stroke-width="4" fill="none"/><path d="M1150 207.47l4.63 14.27h-9.27z" stroke="#008a0e" stroke-width="4" fill="#008a0e"/><path d="M751.98 439H748v-2.05H752z" stroke="#008a0e" stroke-width=".05" fill="#008a0e"/><path d="M92.6 56.82c0-8.04 6.6-14.52 14.76-14.52 8.04 0 14.64 6.48 14.64 14.52 0 7.92-6.6 14.4-14.64 14.4-8.16 0-14.76-6.48-14.76-14.4zm31.44 19.2c-1.68-1.08-3.6-2.04-5.52-2.76 5.4-3.6 8.88-9.6 8.88-16.44 0-11.04-9-19.92-20.04-19.92-11.16 0-20.16 8.88-20.16 19.92 0 6.84 3.48 12.84 8.88 16.44-3.48 1.32-6.72 3.24-9.72 5.76l3.6 4.08c4.92-4.2 11.04-6.48 17.28-6.48 4.92 0 9.72 1.44 13.92 3.96 7.56 4.68 12.48 12.84 13.2 21.72h-27.12v5.52h30c1.56 0 2.76-1.2 2.76-2.76 0-11.88-6.12-22.92-15.96-29.04zm-85.92-19.2c0-8.04 6.6-14.52 14.64-14.52 8.16 0 14.64 6.48 14.64 14.52 0 7.92-6.48 14.4-14.64 14.4-8.04 0-14.64-6.48-14.64-14.4zm14.64 45.48H25.64c1.32-14.4 12.96-25.68 27.12-25.68 4.92 0 9.72 1.44 13.92 3.96 1.2.84 2.28 1.56 3.36 2.52l3.6-4.08c-1.32-1.2-2.64-2.16-4.08-3-1.8-1.08-3.6-2.04-5.52-2.76 5.28-3.6 8.88-9.6 8.88-16.44 0-11.04-9-19.92-20.16-19.92-11.04 0-20.16 8.88-20.16 19.92 0 6.84 3.6 12.84 9 16.44C29 78.06 20 90.42 20 105.06c0 1.56 1.2 2.76 2.76 2.76h30v-5.52zm.12 49.2c1.32-14.52 12.96-25.8 27.12-25.8 4.92 0 9.72 1.44 13.92 3.96 7.44 4.68 12.36 12.84 13.2 21.84H52.88zm12.48-45.6c0-8.04 6.6-14.4 14.64-14.4 8.16 0 14.76 6.36 14.76 14.4 0 7.92-6.6 14.4-14.76 14.4-8.04 0-14.64-6.48-14.64-14.4zm31.44 19.2c-1.8-1.08-3.6-2.04-5.52-2.76 5.4-3.6 8.88-9.6 8.88-16.44 0-11.04-9-19.92-20.16-19.92-11.04 0-20.04 8.88-20.04 19.92 0 6.84 3.48 12.84 8.88 16.44-12.6 4.8-21.6 17.16-21.6 31.8 0 1.56 1.2 2.76 2.76 2.76h60c1.56 0 2.76-1.2 2.76-2.76 0-11.76-6.12-22.92-15.96-29.04z" stroke="#000" stroke-opacity="0" fill="#232f3e"/><g><use xlink:href="#w" transform="matrix(1,0,0,1,-10,165.89802083333333) translate(59.34136284722223 21.52777777777778)"/></g><path d="M142 97.33h834.26" stroke="#4c535d" stroke-width="4" fill="none"/><path d="M142.05 99.3h-2.55v-.16l-1-3.78h3.55z" stroke="#4c535d" stroke-width=".05" fill="#4c535d"/><path d="M992.53 97.33l-14.27 4.64V92.7z" stroke="#4c535d" stroke-width="4" fill="#4c535d"/><path d="M180 46a6 6 0 0 1 6-6h57.4a6 6 0 0 1 6 6v24.9a6 6 0 0 1-6 6H186a6 6 0 0 1-6-6z" fill="none"/><g><use xlink:href="#v" transform="matrix(1,0,0,1,185,45) translate(0 21.58376736111111)"/></g><defs><path fill="#5a6c86" d="M180 0v-1490h908v168H370v486h669v168H370v500h727V0H180" id="x"/><path fill="#5a6c86" d="M158 0v-1118h175l1 205c55-151 181-225 313-225 147 0 245 90 285 228 53-141 190-228 352-228 194 0 352 125 352 384V0h-181v-749c0-161-105-225-225-225-151 0-243 103-243 244V0H807v-767c0-124-93-207-219-207-131 0-250 92-250 270V0H158" id="y"/><path fill="#5a6c86" d="M471 26C259 26 90-98 90-318c0-256 228-303 435-329 202-27 287-16 287-108 0-139-79-219-234-219-161 0-248 86-283 164l-173-57c86-203 278-265 451-265 150 0 419 46 419 395V0H815v-152h-12C765-73 660 26 471 26zm31-159c199 0 310-134 310-271v-155c-30 35-226 55-295 64-131 17-246 59-246 186 0 116 97 176 231 176" id="z"/><path fill="#5a6c86" d="M158 0v-1118h180V0H158zm91-1301c-68 0-125-53-125-119s57-119 125-119c69 0 126 53 126 119s-57 119-126 119" id="A"/><path fill="#5a6c86" d="M338-1490V0H158v-1490h180" id="B"/><g id="a"><use transform="matrix(0.010850694444444444,0,0,0.010850694444444444,0,0)" xlink:href="#x"/><use transform="matrix(0.010850694444444444,0,0,0.010850694444444444,13.35720486111111,0)" xlink:href="#y"/><use transform="matrix(0.010850694444444444,0,0,0.010850694444444444,32.82335069444444,0)" xlink:href="#z"/><use transform="matrix(0.010850694444444444,0,0,0.010850694444444444,45.30164930555556,0)" xlink:href="#A"/><use transform="matrix(0.010850694444444444,0,0,0.010850694444444444,50.68359375,0)" xlink:href="#B"/></g><path fill="#5a6c86" d="M158 0v-1118h174v172h12c41-113 157-188 290-188 26 0 70 2 91 3v181c-11-2-60-10-108-10-161 0-279 109-279 260V0H158" id="C"/><path fill="#5a6c86" d="M613 24c-304 0-509-231-509-576 0-350 205-580 509-580 216 0 392 114 453 309l-173 49c-33-115-133-197-280-197-223 0-326 196-326 419 0 220 103 415 326 415 150 0 252-85 285-206l172 49C1010-95 832 24 613 24" id="D"/><path fill="#5a6c86" d="M338-670V0H158v-1490h180v566c73-149 190-208 336-208 226 0 379 139 379 422V0H872v-695c0-172-96-275-252-275-161 0-282 109-282 300" id="E"/><path fill="#5a6c86" d="M481 0L54-1118h197c107 314 236 620 325 951 87-331 217-637 324-951h197L670 0H481" id="F"/><path fill="#5a6c86" d="M628 24c-324 0-524-230-524-574 0-343 198-582 503-582 237 0 487 146 487 559v75H286c9 234 145 362 343 362 132 0 231-58 273-172l174 48C1024-91 857 24 628 24zM287-650h624c-17-190-120-322-304-322-192 0-309 151-320 322" id="G"/><g id="b"><use transform="matrix(0.010850694444444444,0,0,0.010850694444444444,0,0)" xlink:href="#z"/><use transform="matrix(0.010850694444444444,0,0,0.010850694444444444,12.47829861111111,0)" xlink:href="#C"/><use transform="matrix(0.010850694444444444,0,0,0.010850694444444444,20.475260416666664,0)" xlink:href="#D"/><use transform="matrix(0.010850694444444444,0,0,0.010850694444444444,33.170572916666664,0)" xlink:href="#E"/><use transform="matrix(0.010850694444444444,0,0,0.010850694444444444,46.310763888888886,0)" xlink:href="#A"/><use transform="matrix(0.010850694444444444,0,0,0.010850694444444444,51.69270833333333,0)" xlink:href="#F"/><use transform="matrix(0.010850694444444444,0,0,0.010850694444444444,63.74782986111111,0)" xlink:href="#G"/></g><path fill="#5a6c86" d="M409 0L70-1118h191c89 329 165 560 243 925 75-353 154-601 240-925h192c85 325 161 564 235 922 77-354 157-598 244-922h191L1267 0h-179c-86-307-176-590-250-913C763-588 675-308 588 0H409" id="H"/><path fill="#5a6c86" d="M598-1118v154H368v674c0 100 37 144 132 144 23 0 62-6 92-12L629-6c-37 13-88 20-134 20-193 0-307-107-307-290v-688H20v-154h168v-266h180v266h230" id="I"/><g id="c"><use transform="matrix(0.010850694444444444,0,0,0.010850694444444444,0,0)" xlink:href="#H"/><use transform="matrix(0.010850694444444444,0,0,0.010850694444444444,18.18576388888889,0)" xlink:href="#A"/><use transform="matrix(0.010850694444444444,0,0,0.010850694444444444,23.567708333333336,0)" xlink:href="#I"/><use transform="matrix(0.010850694444444444,0,0,0.010850694444444444,30.837673611111114,0)" xlink:href="#E"/></g><path fill="#5a6c86" d="M537 14c-226 0-379-139-379-422v-710h180v695c0 172 97 275 253 275 160 0 281-109 281-300v-670h181V0H879v-209C806-46 684 14 537 14" id="J"/><path fill="#5a6c86" d="M158 418v-1536h174v179h20c37-59 106-193 324-193 279 0 474 222 474 576 0 356-194 580-473 580-213 0-288-135-325-197h-14v591H158zm492-555c209 0 317-186 317-421 0-232-105-413-317-413-206 0-314 166-314 413 0 249 111 421 314 421" id="K"/><g id="d"><use transform="matrix(0.010850694444444444,0,0,0.010850694444444444,0,0)" xlink:href="#y"/><use transform="matrix(0.010850694444444444,0,0,0.010850694444444444,19.466145833333332,0)" xlink:href="#J"/><use transform="matrix(0.010850694444444444,0,0,0.010850694444444444,32.60633680555556,0)" xlink:href="#B"/><use transform="matrix(0.010850694444444444,0,0,0.010850694444444444,38.313802083333336,0)" xlink:href="#I"/><use transform="matrix(0.010850694444444444,0,0,0.010850694444444444,45.58376736111111,0)" xlink:href="#A"/><use transform="matrix(0.010850694444444444,0,0,0.010850694444444444,50.96571180555556,0)" xlink:href="#K"/><use transform="matrix(0.010850694444444444,0,0,0.010850694444444444,64.57248263888889,0)" xlink:href="#B"/><use transform="matrix(0.010850694444444444,0,0,0.010850694444444444,69.95442708333333,0)" xlink:href="#G"/></g><path fill="#5a6c86" d="M338-670V0H158v-1118h173l1 207c72-158 192-221 342-221 226 0 378 139 378 422V0H872v-695c0-172-96-275-252-275-161 0-282 109-282 300" id="L"/><path fill="#5a6c86" d="M613 24c-304 0-509-231-509-576 0-350 205-580 509-580 305 0 511 230 511 580 0 345-206 576-511 576zm0-161c226 0 329-195 329-415 0-222-103-419-329-419-223 0-326 196-326 419 0 220 103 415 326 415" id="M"/><path fill="#5a6c86" d="M577 24c-279 0-473-224-473-580 0-354 195-576 474-576 218 0 287 134 324 193h14v-551h180V0H922v-173h-20C865-111 790 24 577 24zm27-161c203 0 314-172 314-421 0-247-108-413-314-413-212 0-317 181-317 413 0 235 108 421 317 421" id="N"/><path fill="#5a6c86" d="M538 24C308 24 148-78 108-271l171-41c32 123 123 178 257 178 156 0 256-77 256-169 0-77-54-128-164-154l-186-44c-203-48-300-148-300-305 0-192 176-326 414-326 230 0 351 112 402 269l-163 42c-31-80-94-158-238-158-133 0-233 69-233 162 0 83 57 129 188 160l169 40c203 48 298 149 298 302 0 196-179 339-441 339" id="O"/><g id="e"><use transform="matrix(0.010850694444444444,0,0,0.010850694444444444,0,0)" xlink:href="#L"/><use transform="matrix(0.010850694444444444,0,0,0.010850694444444444,13.129340277777777,0)" xlink:href="#M"/><use transform="matrix(0.010850694444444444,0,0,0.010850694444444444,26.453993055555554,0)" xlink:href="#N"/><use transform="matrix(0.010850694444444444,0,0,0.010850694444444444,40.060763888888886,0)" xlink:href="#G"/><use transform="matrix(0.010850694444444444,0,0,0.010850694444444444,53.01649305555556,0)" xlink:href="#O"/></g><path d="M657 26c-323 0-524-166-541-416h195c15 169 171 246 346 246 202 0 356-106 356-265 5-203-294-238-475-293-239-73-380-191-380-389 0-252 224-419 512-419 294 0 499 171 508 396H992c-17-145-151-228-328-228-193 0-321 102-321 242 0 156 175 211 284 241l149 41c160 44 422 134 422 412 0 244-197 432-541 432" id="P"/><path d="M158 0v-1118h175l1 205c55-151 181-225 313-225 147 0 245 90 285 228 53-141 190-228 352-228 194 0 352 125 352 384V0h-181v-749c0-161-105-225-225-225-151 0-243 103-243 244V0H807v-767c0-124-93-207-219-207-131 0-250 92-250 270V0H158" id="Q"/><path d="M471 26C259 26 90-98 90-318c0-256 228-303 435-329 202-27 287-16 287-108 0-139-79-219-234-219-161 0-248 86-283 164l-173-57c86-203 278-265 451-265 150 0 419 46 419 395V0H815v-152h-12C765-73 660 26 471 26zm31-159c199 0 310-134 310-271v-155c-30 35-226 55-295 64-131 17-246 59-246 186 0 116 97 176 231 176" id="R"/><path d="M158 0v-1118h174v172h12c41-113 157-188 290-188 26 0 70 2 91 3v181c-11-2-60-10-108-10-161 0-279 109-279 260V0H158" id="S"/><path d="M598-1118v154H368v674c0 100 37 144 132 144 23 0 62-6 92-12L629-6c-37 13-88 20-134 20-193 0-307-107-307-290v-688H20v-154h168v-266h180v266h230" id="T"/><path d="M338-670V0H158v-1490h180v566c73-149 190-208 336-208 226 0 379 139 379 422V0H872v-695c0-172-96-275-252-275-161 0-282 109-282 300" id="U"/><path d="M613 24c-304 0-509-231-509-576 0-350 205-580 509-580 305 0 511 230 511 580 0 345-206 576-511 576zm0-161c226 0 329-195 329-415 0-222-103-419-329-419-223 0-326 196-326 419 0 220 103 415 326 415" id="V"/><path d="M538 24C308 24 148-78 108-271l171-41c32 123 123 178 257 178 156 0 256-77 256-169 0-77-54-128-164-154l-186-44c-203-48-300-148-300-305 0-192 176-326 414-326 230 0 351 112 402 269l-163 42c-31-80-94-158-238-158-133 0-233 69-233 162 0 83 57 129 188 160l169 40c203 48 298 149 298 302 0 196-179 339-441 339" id="W"/><g id="f"><use transform="matrix(0.010850694444444444,0,0,0.010850694444444444,0,0)" xlink:href="#P"/><use transform="matrix(0.010850694444444444,0,0,0.010850694444444444,14.2578125,0)" xlink:href="#Q"/><use transform="matrix(0.010850694444444444,0,0,0.010850694444444444,33.72395833333333,0)" xlink:href="#R"/><use transform="matrix(0.010850694444444444,0,0,0.010850694444444444,46.20225694444444,0)" xlink:href="#S"/><use transform="matrix(0.010850694444444444,0,0,0.010850694444444444,54.91536458333333,0)" xlink:href="#T"/><use transform="matrix(0.010850694444444444,0,0,0.010850694444444444,62.18532986111111,0)" xlink:href="#U"/><use transform="matrix(0.010850694444444444,0,0,0.010850694444444444,75.32552083333333,0)" xlink:href="#V"/><use transform="matrix(0.010850694444444444,0,0,0.010850694444444444,88.6501736111111,0)" xlink:href="#W"/><use transform="matrix(0.010850694444444444,0,0,0.010850694444444444,100.37977430555556,0)" xlink:href="#T"/></g><path d="M458 0L52-1490h194c108 439 233 855 324 1313 92-459 221-873 331-1313h216c110 438 234 854 330 1307 92-455 216-869 323-1307h196L1558 0h-221l-256-944c-26-95-50-200-73-331-22 122-44 223-73 331L680 0H458" id="X"/><path d="M158 0v-1490h180v865h22l478-493h223L593-638 1096 0H865L456-523 338-412V0H158" id="Y"/><path d="M628 24c-324 0-524-230-524-574 0-343 198-582 503-582 237 0 487 146 487 559v75H286c9 234 145 362 343 362 132 0 231-58 273-172l174 48C1024-91 857 24 628 24zM287-650h624c-17-190-120-322-304-322-192 0-309 151-320 322" id="Z"/><g id="g"><use transform="matrix(0.010850694444444444,0,0,0.010850694444444444,0,0)" xlink:href="#X"/><use transform="matrix(0.010850694444444444,0,0,0.010850694444444444,20.768229166666668,0)" xlink:href="#V"/><use transform="matrix(0.010850694444444444,0,0,0.010850694444444444,34.09288194444444,0)" xlink:href="#S"/><use transform="matrix(0.010850694444444444,0,0,0.010850694444444444,42.80598958333333,0)" xlink:href="#Y"/><use transform="matrix(0.010850694444444444,0,0,0.010850694444444444,54.50303819444444,0)" xlink:href="#Z"/><use transform="matrix(0.010850694444444444,0,0,0.010850694444444444,67.45876736111111,0)" xlink:href="#S"/></g><path d="M338-670V0H158v-1118h173l1 207c72-158 192-221 342-221 226 0 378 139 378 422V0H872v-695c0-172-96-275-252-275-161 0-282 109-282 300" id="aa"/><path d="M577 24c-279 0-473-224-473-580 0-354 195-576 474-576 218 0 287 134 324 193h14v-551h180V0H922v-173h-20C865-111 790 24 577 24zm27-161c203 0 314-172 314-421 0-247-108-413-314-413-212 0-317 181-317 413 0 235 108 421 317 421" id="ab"/><g id="h"><use transform="matrix(0.010850694444444444,0,0,0.010850694444444444,0,0)" xlink:href="#aa"/><use transform="matrix(0.010850694444444444,0,0,0.010850694444444444,13.129340277777777,0)" xlink:href="#V"/><use transform="matrix(0.010850694444444444,0,0,0.010850694444444444,26.453993055555554,0)" xlink:href="#ab"/><use transform="matrix(0.010850694444444444,0,0,0.010850694444444444,40.060763888888886,0)" xlink:href="#Z"/></g><path d="M154 0v-137l495-537c165-179 249-281 249-418 0-156-121-253-280-253-170 0-278 110-278 278H158c0-264 200-443 465-443 266 0 455 183 455 416 0 161-73 288-336 568L416-179v12h687V0H154" id="ac"/><use transform="matrix(0.010850694444444444,0,0,0.010850694444444444,0,0)" xlink:href="#ac" id="i"/><path d="M180 0v-1490h270l367 940c28 72 75 218 110 339 35-117 81-264 110-339l362-940h271V0h-187c2-448-5-837 7-1287-157 497-311 829-483 1287H842C666-458 514-784 354-1284c12 438 5 843 7 1284H180" id="ad"/><path d="M158 0v-1118h180V0H158zm91-1301c-68 0-125-53-125-119s57-119 125-119c69 0 126 53 126 119s-57 119-126 119" id="ae"/><path d="M338-1490V0H158v-1490h180" id="af"/><g id="j"><use transform="matrix(0.010850694444444444,0,0,0.010850694444444444,0,0)" xlink:href="#ad"/><use transform="matrix(0.010850694444444444,0,0,0.010850694444444444,20.07378472222222,0)" xlink:href="#R"/><use transform="matrix(0.010850694444444444,0,0,0.010850694444444444,32.55208333333333,0)" xlink:href="#ae"/><use transform="matrix(0.010850694444444444,0,0,0.010850694444444444,37.93402777777777,0)" xlink:href="#af"/></g><path d="M481 0L54-1118h197c107 314 236 620 325 951 87-331 217-637 324-951h197L670 0H481" id="ag"/><g id="k"><use transform="matrix(0.010850694444444444,0,0,0.010850694444444444,0,0)" xlink:href="#W"/><use transform="matrix(0.010850694444444444,0,0,0.010850694444444444,11.729600694444445,0)" xlink:href="#Z"/><use transform="matrix(0.010850694444444444,0,0,0.010850694444444444,24.68532986111111,0)" xlink:href="#S"/><use transform="matrix(0.010850694444444444,0,0,0.010850694444444444,33.3984375,0)" xlink:href="#ag"/><use transform="matrix(0.010850694444444444,0,0,0.010850694444444444,45.45355902777778,0)" xlink:href="#Z"/><use transform="matrix(0.010850694444444444,0,0,0.010850694444444444,58.40928819444444,0)" xlink:href="#S"/></g><path d="M763 24c-353 0-583-224-583-531v-983h190v968c0 214 149 370 393 370 243 0 391-156 391-370v-968h190v983c0 307-230 531-581 531" id="ah"/><path d="M370-1490V0H180v-1490h190" id="ai"/><g id="l"><use transform="matrix(0.010850694444444444,0,0,0.010850694444444444,0,0)" xlink:href="#ah"/><use transform="matrix(0.010850694444444444,0,0,0.010850694444444444,16.536458333333332,0)" xlink:href="#ai"/></g><g id="m"><use transform="matrix(0.010850694444444444,0,0,0.010850694444444444,0,0)" xlink:href="#aa"/><use transform="matrix(0.010850694444444444,0,0,0.010850694444444444,13.129340277777777,0)" xlink:href="#V"/><use transform="matrix(0.010850694444444444,0,0,0.010850694444444444,26.453993055555554,0)" xlink:href="#ab"/><use transform="matrix(0.010850694444444444,0,0,0.010850694444444444,40.060763888888886,0)" xlink:href="#Z"/></g><path d="M57 0l534-763-501-727h220c122 187 296 416 391 605 94-191 272-419 396-605h215L811-770 1340 0h-219C986-204 811-426 699-640 588-430 407-202 273 0H57" id="aj"/><g id="n"><use transform="matrix(0.010850694444444444,0,0,0.010850694444444444,0,0)" xlink:href="#ad"/><use transform="matrix(0.010850694444444444,0,0,0.010850694444444444,20.07378472222222,0)" xlink:href="#aj"/></g><path d="M180 0v-1490h224l606 953c40 63 108 177 176 312-27-437-7-821-13-1265h190V0h-226C860-448 622-778 356-1262c27 476 11 792 15 1262H180" id="ak"/><use transform="matrix(0.010850694444444444,0,0,0.010850694444444444,0,0)" xlink:href="#ak" id="o"/><path d="M98-1322v-168h1126v168H757V0H567v-1322H98" id="al"/><path d="M180 0v-1490h510c348 0 508 209 508 474 0 266-160 477-507 477H370V0H180zm190-706h312c236 0 327-133 327-310 0-176-91-307-329-307H370v617" id="am"/><g id="p"><use transform="matrix(0.010850694444444444,0,0,0.010850694444444444,0,0)" xlink:href="#P"/><use transform="matrix(0.010850694444444444,0,0,0.010850694444444444,14.2578125,0)" xlink:href="#ad"/><use transform="matrix(0.010850694444444444,0,0,0.010850694444444444,34.33159722222222,0)" xlink:href="#al"/><use transform="matrix(0.010850694444444444,0,0,0.010850694444444444,48.67621527777778,0)" xlink:href="#am"/></g><path d="M180 0v-1490h510c348 0 508 194 508 460 0 198-88 351-276 417L1256 0h-220L726-579c-117 2-238 0-356 1V0H180zm190-747h312c235 0 327-108 327-283 0-177-92-293-329-293H370v576" id="an"/><g id="q"><use transform="matrix(0.010850694444444444,0,0,0.010850694444444444,0,0)" xlink:href="#an"/><use transform="matrix(0.010850694444444444,0,0,0.010850694444444444,13.975694444444445,0)" xlink:href="#Z"/><use transform="matrix(0.010850694444444444,0,0,0.010850694444444444,26.931423611111104,0)" xlink:href="#W"/><use transform="matrix(0.010850694444444444,0,0,0.010850694444444444,38.66102430555555,0)" xlink:href="#T"/><use transform="matrix(0.010850694444444444,0,0,0.010850694444444444,45.71397569444444,0)" xlink:href="#V"/><use transform="matrix(0.010850694444444444,0,0,0.010850694444444444,59.03862847222222,0)" xlink:href="#S"/><use transform="matrix(0.010850694444444444,0,0,0.010850694444444444,67.03559027777777,0)" xlink:href="#Z"/></g><g id="r"><use transform="matrix(0.010850694444444444,0,0,0.010850694444444444,0,0)" xlink:href="#Z"/><use transform="matrix(0.010850694444444444,0,0,0.010850694444444444,12.955729166666666,0)" xlink:href="#Q"/><use transform="matrix(0.010850694444444444,0,0,0.010850694444444444,32.421875,0)" xlink:href="#R"/><use transform="matrix(0.010850694444444444,0,0,0.010850694444444444,44.90017361111111,0)" xlink:href="#ae"/><use transform="matrix(0.010850694444444444,0,0,0.010850694444444444,50.28211805555556,0)" xlink:href="#af"/><use transform="matrix(0.010850694444444444,0,0,0.010850694444444444,55.6640625,0)" xlink:href="#W"/></g><g id="s"><use transform="matrix(0.010850694444444444,0,0,0.010850694444444444,0,0)" xlink:href="#ag"/><use transform="matrix(0.010850694444444444,0,0,0.010850694444444444,12.489149305555555,0)" xlink:href="#ae"/><use transform="matrix(0.010850694444444444,0,0,0.010850694444444444,17.87109375,0)" xlink:href="#R"/></g><g id="t"><use transform="matrix(0.010850694444444444,0,0,0.010850694444444444,0,0)" xlink:href="#P"/><use transform="matrix(0.010850694444444444,0,0,0.010850694444444444,14.2578125,0)" xlink:href="#ad"/><use transform="matrix(0.010850694444444444,0,0,0.010850694444444444,34.33159722222222,0)" xlink:href="#al"/><use transform="matrix(0.010850694444444444,0,0,0.010850694444444444,48.67621527777778,0)" xlink:href="#am"/></g><path d="M653-1490V0H466v-1314h-10L96-1047v-204l324-239h233" id="ao"/><use transform="matrix(0.010850694444444444,0,0,0.010850694444444444,0,0)" xlink:href="#ao" id="u"/><path d="M180 0v-1490h190v644h782v-644h190V0h-190v-678H370V0H180" id="ap"/><g id="v"><use transform="matrix(0.010850694444444444,0,0,0.010850694444444444,0,0)" xlink:href="#ap"/><use transform="matrix(0.010850694444444444,0,0,0.010850694444444444,16.514756944444443,0)" xlink:href="#al"/><use transform="matrix(0.010850694444444444,0,0,0.010850694444444444,30.859375,0)" xlink:href="#al"/><use transform="matrix(0.010850694444444444,0,0,0.010850694444444444,45.20399305555556,0)" xlink:href="#am"/></g><g id="w"><use transform="matrix(0.010850694444444444,0,0,0.010850694444444444,0,0)" xlink:href="#ah"/><use transform="matrix(0.010850694444444444,0,0,0.010850694444444444,16.536458333333332,0)" xlink:href="#W"/><use transform="matrix(0.010850694444444444,0,0,0.010850694444444444,28.266059027777775,0)" xlink:href="#Z"/><use transform="matrix(0.010850694444444444,0,0,0.010850694444444444,41.22178819444444,0)" xlink:href="#S"/><use transform="matrix(0.010850694444444444,0,0,0.010850694444444444,49.58767361111111,0)" xlink:href="#W"/></g></defs></g></svg>