<svg xmlns="http://www.w3.org/2000/svg" xmlns:xlink="http://www.w3.org/1999/xlink" xmlns:lucid="lucid" width="1901.5" height="802"><g transform="translate(-499.5 -299)" lucid:page-tab-id="0_0"><path d="M1000 306a6 6 0 0 1 6-6h788a6 6 0 0 1 6 6v788a6 6 0 0 1-6 6h-788a6 6 0 0 1-6-6z" fill="#fff" fill-opacity="0"/><path d="M1018.06 300h8.04m8.04 0h8.04m8.04 0h8.05m8.04 0h8.05m8.04 0h8.03m8.04 0h8.04m8.05 0h8.04m8.03 0h8.04m8.04 0h8.06m8.04 0h8.04m8.04 0h8.04m8.04 0h8.04m8.04 0h8.04m8.04 0h8.04m8.04 0h8.04m8.05 0h8.03m8.04 0h8.04m8.05 0h8.04m8.03 0h8.04m8.04 0h8.05m8.04 0h8.03m8.05 0h8.04m8.04 0h8.04m8.04 0h8.04m8.04 0h8.04m8.04 0h8.04m8.04 0h8.04m8.05 0h8.04m8.05 0h8.04m8.03 0h8.04m8.04 0h8.05m8.04 0h8.03m8.04 0h8.04m8.06 0h8.04m8.04 0h8.04m8.04 0h8.04m8.04 0h8.04m8.04 0h8.04m8.04 0h8.04m8.04 0h8.05m8.03 0h8.04m8.04 0h8.05m8.04 0h8.03m8.04 0h8.04m8.05 0h8.04m8.03 0h8.05m8.04 0h8.04m8.04 0h8.04m8.04 0h4.02a6 6 0 0 1 6 6v4.02m0 8.04v8.04m0 8.04v8.04m0 8.04v8.04m0 8.05v8.05m0 8.04v8.03m0 8.04v8.04m0 8.05v8.04m0 8.03v8.04m0 8.04v8.06m0 8.04v8.04m0 8.04v8.04m0 8.04V503m0 8.04v8.04m0 8.04v8.04m0 8.04v8.04m0 8.05v8.03m0 8.04v8.04m0 8.05v8.04m0 8.03v8.04m0 8.04v8.05m0 8.04v8.03m0 8.05v8.04m0 8.04v8.04m0 8.04v8.04m0 8.04v8.04m0 8.04v8.04m0 8.04v8.04m0 8.04v8.05m0 8.05v8.04m0 8.03v8.04m0 8.04v8.05m0 8.04v8.03m0 8.04v8.04m0 8.05v8.05m0 8.04v8.04m0 8.04v8.04m0 8.04v8.04m0 8.04v8.04m0 8.04v8.04m0 8.04v8.05m0 8.03v8.04m0 8.04v8.05m0 8.04v8.03m0 8.04v8.04m0 8.05v8.04m0 8.03v8.05m0 8.04v8.04m0 8.04v8.04m0 8.04v4.02a6 6 0 0 1-6 6h-4.02m-8.04 0h-8.04m-8.04 0h-8.04m-8.04 0h-8.05m-8.04 0h-8.05m-8.04 0h-8.03m-8.04 0h-8.04m-8.05 0h-8.04m-8.03 0h-8.04m-8.04 0h-8.06m-8.04 0h-8.04m-8.04 0h-8.04m-8.04 0H1597m-8.04 0h-8.04m-8.04 0h-8.04m-8.04 0h-8.04m-8.05 0h-8.03m-8.04 0h-8.04m-8.05 0h-8.04m-8.03 0h-8.04m-8.04 0h-8.05m-8.04 0h-8.03m-8.05 0h-8.04m-8.04 0h-8.04m-8.04 0h-8.04m-8.04 0h-8.04m-8.04 0h-8.04m-8.04 0h-8.04m-8.05 0h-8.04m-8.05 0h-8.04m-8.03 0h-8.04m-8.04 0h-8.05m-8.04 0h-8.03m-8.04 0h-8.04m-8.06 0h-8.04m-8.04 0h-8.04m-8.04 0h-8.04m-8.04 0h-8.04m-8.04 0h-8.04m-8.04 0h-8.04m-8.04 0h-8.05m-8.03 0h-8.04m-8.04 0h-8.05m-8.04 0h-8.03m-8.04 0h-8.04m-8.05 0h-8.04m-8.03 0h-8.05m-8.04 0h-8.04m-8.04 0h-8.04m-8.04 0H1006a6 6 0 0 1-6-6v-4.02m0-8.04v-8.04m0-8.04v-8.04m0-8.04v-8.05m0-8.04v-8.05m0-8.04v-8.03m0-8.04v-8.04m0-8.05v-8.04m0-8.03v-8.04m0-8.04v-8.05m0-8.05v-8.04m0-8.04v-8.04m0-8.04V897m0-8.04v-8.04m0-8.04v-8.04m0-8.04v-8.04m0-8.05v-8.03m0-8.04v-8.04m0-8.05v-8.04m0-8.03v-8.04m0-8.04v-8.05m0-8.04v-8.03m0-8.05v-8.04m0-8.04v-8.04m0-8.04v-8.04m0-8.04v-8.04m0-8.04v-8.04m0-8.04v-8.04m0-8.04v-8.05m0-8.05v-8.04m0-8.03v-8.04m0-8.04v-8.05m0-8.04v-8.03m0-8.04v-8.04m0-8.05v-8.05m0-8.04v-8.04m0-8.04v-8.04m0-8.04v-8.04m0-8.04v-8.04m0-8.04v-8.04m0-8.05v-8.04m0-8.03v-8.04m0-8.04v-8.05m0-8.04v-8.03m0-8.04v-8.04m0-8.05v-8.04m0-8.04v-8.04m0-8.04v-8.04m0-8.04v-8.04m0-8.04V306a6 6 0 0 1 6-6h4.02" stroke="#5a6c86" stroke-width="2" fill="none"/><use xlink:href="#a" transform="matrix(1,0,0,1,1000,320) translate(330.4904513888889 21.52777777777778)"/><use xlink:href="#b" transform="matrix(1,0,0,1,1000,320) translate(392.80598958333337 21.52777777777778)"/><path d="M1200 400h300v200h-300z" stroke="#198038" stroke-width="2" fill="#fff"/><path d="M1200 400h300v200h-300z" fill-opacity="0"/><path d="M1237.5 452.5c0 .68-.56 1.24-1.25 1.24-.7 0-1.25-.56-1.25-1.25 0-.7.56-1.26 1.25-1.26.7 0 1.25.56 1.25 1.25z" stroke="#000" stroke-opacity="0" stroke-width=".33"/><path d="M1257.5 457.52h-25c-1.4 0-2.5-1.12-2.5-2.5v-5c0-1.38 1.1-2.5 2.5-2.5h25c1.4 0 2.5 1.12 2.5 2.5v5c0 1.38-1.1 2.5-2.5 2.5zm-25-7.5v5h25v-5h-25zM1237.5 440c0 .7-.56 1.26-1.25 1.26-.7 0-1.25-.56-1.25-1.25 0-.68.56-1.24 1.25-1.24.7 0 1.25.56 1.25 1.25z" stroke="#000" stroke-opacity="0" stroke-width=".33"/><path d="M1257.5 445h-25c-1.4 0-2.5-1.12-2.5-2.5v-5c0-1.38 1.1-2.5 2.5-2.5h25c1.4 0 2.5 1.12 2.5 2.5v5c0 1.38-1.1 2.5-2.5 2.5zm-25-7.5v5h25v-5h-25zM1237.5 427.5c0 .68-.56 1.24-1.25 1.24-.7 0-1.25-.56-1.25-1.25 0-.7.56-1.26 1.25-1.26.7 0 1.25.56 1.25 1.25z" stroke="#000" stroke-opacity="0" stroke-width=".33"/><path d="M1257.5 432.5h-25c-1.4 0-2.5-1.12-2.5-2.5v-5c0-1.38 1.1-2.5 2.5-2.5h25c1.4 0 2.5 1.12 2.5 2.5v5c0 1.38-1.1 2.5-2.5 2.5zm-25-7.5v5h25v-5h-25z" stroke="#000" stroke-opacity="0" stroke-width=".33"/><path d="M1225 420h40v40h-40v-40z" stroke="#000" stroke-opacity="0" stroke-width=".33" fill-opacity="0"/><path d="M1200 400h8v80h-8z" fill="#198038"/><use xlink:href="#c" transform="matrix(1,0,0,1,1285,425) translate(0 21.52777777777778)"/><use xlink:href="#d" transform="matrix(1,0,0,1,1285,425) translate(62.31553819444444 21.52777777777778)"/><path d="M1200 800h300v200h-300z" stroke="#198038" stroke-width="2" fill="#fff"/><path d="M1200 800h300v200h-300z" fill-opacity="0"/><path d="M1237.5 852.5c0 .68-.56 1.24-1.25 1.24-.7 0-1.25-.56-1.25-1.25 0-.7.56-1.26 1.25-1.26.7 0 1.25.56 1.25 1.25z" stroke="#000" stroke-opacity="0" stroke-width=".33"/><path d="M1257.5 857.52h-25c-1.4 0-2.5-1.12-2.5-2.5v-5c0-1.38 1.1-2.5 2.5-2.5h25c1.4 0 2.5 1.12 2.5 2.5v5c0 1.38-1.1 2.5-2.5 2.5zm-25-7.5v5h25v-5h-25zM1237.5 840c0 .7-.56 1.26-1.25 1.26-.7 0-1.25-.56-1.25-1.25 0-.68.56-1.24 1.25-1.24.7 0 1.25.56 1.25 1.25z" stroke="#000" stroke-opacity="0" stroke-width=".33"/><path d="M1257.5 845h-25c-1.4 0-2.5-1.12-2.5-2.5v-5c0-1.38 1.1-2.5 2.5-2.5h25c1.4 0 2.5 1.12 2.5 2.5v5c0 1.38-1.1 2.5-2.5 2.5zm-25-7.5v5h25v-5h-25zM1237.5 827.5c0 .68-.56 1.24-1.25 1.24-.7 0-1.25-.56-1.25-1.25 0-.7.56-1.26 1.25-1.26.7 0 1.25.56 1.25 1.25z" stroke="#000" stroke-opacity="0" stroke-width=".33"/><path d="M1257.5 832.5h-25c-1.4 0-2.5-1.12-2.5-2.5v-5c0-1.38 1.1-2.5 2.5-2.5h25c1.4 0 2.5 1.12 2.5 2.5v5c0 1.38-1.1 2.5-2.5 2.5zm-25-7.5v5h25v-5h-25z" stroke="#000" stroke-opacity="0" stroke-width=".33"/><path d="M1225 820h40v40h-40v-40z" stroke="#000" stroke-opacity="0" stroke-width=".33" fill-opacity="0"/><path d="M1200 800h8v80h-8z" fill="#198038"/><use xlink:href="#e" transform="matrix(1,0,0,1,1285,825) translate(0 21.52777777777778)"/><path d="M2100 400h300v200h-300z" stroke="#198038" stroke-width="2" fill="#defbe6"/><path d="M2100 400h300v200h-300z" fill-opacity="0"/><path d="M2137.5 452.5c0 .68-.56 1.24-1.25 1.24-.7 0-1.25-.56-1.25-1.25 0-.7.56-1.26 1.25-1.26.7 0 1.25.56 1.25 1.25z" stroke="#000" stroke-opacity="0" stroke-width=".33"/><path d="M2157.5 457.52h-25c-1.4 0-2.5-1.12-2.5-2.5v-5c0-1.38 1.1-2.5 2.5-2.5h25c1.4 0 2.5 1.12 2.5 2.5v5c0 1.38-1.1 2.5-2.5 2.5zm-25-7.5v5h25v-5h-25zM2137.5 440c0 .7-.56 1.26-1.25 1.26-.7 0-1.25-.56-1.25-1.25 0-.68.56-1.24 1.25-1.24.7 0 1.25.56 1.25 1.25z" stroke="#000" stroke-opacity="0" stroke-width=".33"/><path d="M2157.5 445h-25c-1.4 0-2.5-1.12-2.5-2.5v-5c0-1.38 1.1-2.5 2.5-2.5h25c1.4 0 2.5 1.12 2.5 2.5v5c0 1.38-1.1 2.5-2.5 2.5zm-25-7.5v5h25v-5h-25zM2137.5 427.5c0 .68-.56 1.24-1.25 1.24-.7 0-1.25-.56-1.25-1.25 0-.7.56-1.26 1.25-1.26.7 0 1.25.56 1.25 1.25z" stroke="#000" stroke-opacity="0" stroke-width=".33"/><path d="M2157.5 432.5h-25c-1.4 0-2.5-1.12-2.5-2.5v-5c0-1.38 1.1-2.5 2.5-2.5h25c1.4 0 2.5 1.12 2.5 2.5v5c0 1.38-1.1 2.5-2.5 2.5zm-25-7.5v5h25v-5h-25z" stroke="#000" stroke-opacity="0" stroke-width=".33"/><path d="M2125 420h40v40h-40v-40z" stroke="#000" stroke-opacity="0" stroke-width=".33" fill-opacity="0"/><path d="M2100 400h8v80h-8z" fill="#198038"/><use xlink:href="#f" transform="matrix(1,0,0,1,2185,425) translate(0 21.52777777777778)"/><use xlink:href="#g" transform="matrix(1,0,0,1,2185,425) translate(49.565972222222214 21.52777777777778)"/><path d="M2097 500h-573.26" stroke="#e81313" stroke-width="4" fill="none"/><path d="M2099 501.98h-2.05v-3.96h2.05z" stroke="#e81313" stroke-width=".05" fill="#e81313"/><path d="M1507.47 500l14.27-4.63v9.26z" stroke="#e81313" stroke-width="4" fill="#e81313"/><path d="M1880 446a6 6 0 0 1 6-6h60.88a6 6 0 0 1 6 6v24.9a6 6 0 0 1-6 6H1886a6 6 0 0 1-6-6z" fill="none"/><use xlink:href="#h" transform="matrix(1,0,0,1,1885,445) translate(0 21.58376736111111)"/><path d="M1350 603.5v170.64" stroke="#1071e5" stroke-width="5" fill="none"/><path d="M1352.47 603.56h-4.94V601h4.94z" stroke="#1071e5" stroke-width=".05" fill="#1071e5"/><path d="M1350 790.9l-4.63-14.26h9.27z" stroke="#1071e5" stroke-width="5" fill="#1071e5"/><path d="M1503 892.17h741a6 6 0 0 0 6-6V623.74" stroke="#1071e5" stroke-width="4" fill="none"/><path d="M1503.05 894.14H1501v-3.95h2.05z" stroke="#1071e5" stroke-width=".05" fill="#1071e5"/><path d="M2250 607.47l4.64 14.27h-9.28z" stroke="#1071e5" stroke-width="4" fill="#1071e5"/><path d="M1380 726a6 6 0 0 1 6-6h257.36a6 6 0 0 1 6 6v24.9a6 6 0 0 1-6 6H1386a6 6 0 0 1-6-6z" fill="none"/><use xlink:href="#i" transform="matrix(1,0,0,1,1385,725) translate(0 21.58376736111111)"/><use xlink:href="#j" transform="matrix(1,0,0,1,1385,725) translate(86.24131944444444 21.58376736111111)"/><use xlink:href="#k" transform="matrix(1,0,0,1,1385,725) translate(159.88498263888889 21.58376736111111)"/><use xlink:href="#l" transform="matrix(1,0,0,1,1385,725) translate(196.484375 21.58376736111111)"/><path d="M572.6 459.92c0-8.04 6.6-14.52 14.76-14.52 8.04 0 14.64 6.48 14.64 14.52 0 7.92-6.6 14.4-14.64 14.4-8.16 0-14.76-6.48-14.76-14.4zm31.44 19.2c-1.68-1.08-3.6-2.04-5.52-2.76 5.4-3.6 8.88-9.6 8.88-16.44 0-11.04-9-19.92-20.04-19.92-11.16 0-20.16 8.88-20.16 19.92 0 6.84 3.48 12.84 8.88 16.44-3.48 1.32-6.72 3.24-9.72 5.76l3.6 4.08c4.92-4.2 11.04-6.48 17.28-6.48 4.92 0 9.72 1.44 13.92 3.96 7.56 4.68 12.48 12.84 13.2 21.72h-27.12v5.52h30c1.56 0 2.76-1.2 2.76-2.76 0-11.88-6.12-22.92-15.96-29.04zm-85.92-19.2c0-8.04 6.6-14.52 14.64-14.52 8.16 0 14.64 6.48 14.64 14.52 0 7.92-6.48 14.4-14.64 14.4-8.04 0-14.64-6.48-14.64-14.4zm14.64 45.48h-27.12c1.32-14.4 12.96-25.68 27.12-25.68 4.92 0 9.72 1.44 13.92 3.96 1.2.84 2.28 1.56 3.36 2.52l3.6-4.08c-1.32-1.2-2.64-2.16-4.08-3-1.8-1.08-3.6-2.04-5.52-2.76 5.28-3.6 8.88-9.6 8.88-16.44 0-11.04-9-19.92-20.16-19.92-11.04 0-20.16 8.88-20.16 19.92 0 6.84 3.6 12.84 9 16.44-12.6 4.8-21.6 17.16-21.6 31.8 0 1.56 1.2 2.76 2.76 2.76h30v-5.52zm.12 49.2c1.32-14.52 12.96-25.8 27.12-25.8 4.92 0 9.72 1.44 13.92 3.96 7.44 4.68 12.36 12.84 13.2 21.84h-54.24zm12.48-45.6c0-8.04 6.6-14.4 14.64-14.4 8.16 0 14.76 6.36 14.76 14.4 0 7.92-6.6 14.4-14.76 14.4-8.04 0-14.64-6.48-14.64-14.4zm31.44 19.2c-1.8-1.08-3.6-2.04-5.52-2.76 5.4-3.6 8.88-9.6 8.88-16.44 0-11.04-9-19.92-20.16-19.92-11.04 0-20.04 8.88-20.04 19.92 0 6.84 3.48 12.84 8.88 16.44-12.6 4.8-21.6 17.16-21.6 31.8 0 1.56 1.2 2.76 2.76 2.76h60c1.56 0 2.76-1.2 2.76-2.76 0-11.76-6.12-22.92-15.96-29.04z" stroke="#000" stroke-opacity="0" fill="#232f3e"/><use xlink:href="#m" transform="matrix(1,0,0,1,470,569) translate(59.34136284722223 21.52777777777778)"/><path d="M622.5 500h551.64" stroke="#000" stroke-width="5" fill="none"/><path d="M622.56 502.48h-3.05v-.24l-1.26-4.72h4.32z" stroke="#000" stroke-width=".05"/><path d="M1190.9 500l-14.26 4.63v-9.26z" stroke="#000" stroke-width="5"/><path d="M780 446a6 6 0 0 1 6-6h57.4a6 6 0 0 1 6 6v24.9a6 6 0 0 1-6 6H786a6 6 0 0 1-6-6z" fill="none"/><g><use xlink:href="#n" transform="matrix(1,0,0,1,785,445) translate(0 21.58376736111111)"/></g><defs><path fill="#5a6c86" d="M180 0v-1490h908v168H370v486h669v168H370v500h727V0H180" id="o"/><path fill="#5a6c86" d="M158 0v-1118h175l1 205c55-151 181-225 313-225 147 0 245 90 285 228 53-141 190-228 352-228 194 0 352 125 352 384V0h-181v-749c0-161-105-225-225-225-151 0-243 103-243 244V0H807v-767c0-124-93-207-219-207-131 0-250 92-250 270V0H158" id="p"/><path fill="#5a6c86" d="M471 26C259 26 90-98 90-318c0-256 228-303 435-329 202-27 287-16 287-108 0-139-79-219-234-219-161 0-248 86-283 164l-173-57c86-203 278-265 451-265 150 0 419 46 419 395V0H815v-152h-12C765-73 660 26 471 26zm31-159c199 0 310-134 310-271v-155c-30 35-226 55-295 64-131 17-246 59-246 186 0 116 97 176 231 176" id="q"/><path fill="#5a6c86" d="M158 0v-1118h180V0H158zm91-1301c-68 0-125-53-125-119s57-119 125-119c69 0 126 53 126 119s-57 119-126 119" id="r"/><path fill="#5a6c86" d="M338-1490V0H158v-1490h180" id="s"/><g id="a"><use transform="matrix(0.010850694444444444,0,0,0.010850694444444444,0,0)" xlink:href="#o"/><use transform="matrix(0.010850694444444444,0,0,0.010850694444444444,13.35720486111111,0)" xlink:href="#p"/><use transform="matrix(0.010850694444444444,0,0,0.010850694444444444,32.82335069444444,0)" xlink:href="#q"/><use transform="matrix(0.010850694444444444,0,0,0.010850694444444444,45.30164930555556,0)" xlink:href="#r"/><use transform="matrix(0.010850694444444444,0,0,0.010850694444444444,50.68359375,0)" xlink:href="#s"/></g><path fill="#5a6c86" d="M158 0v-1118h174v172h12c41-113 157-188 290-188 26 0 70 2 91 3v181c-11-2-60-10-108-10-161 0-279 109-279 260V0H158" id="t"/><path fill="#5a6c86" d="M613 24c-304 0-509-231-509-576 0-350 205-580 509-580 216 0 392 114 453 309l-173 49c-33-115-133-197-280-197-223 0-326 196-326 419 0 220 103 415 326 415 150 0 252-85 285-206l172 49C1010-95 832 24 613 24" id="u"/><path fill="#5a6c86" d="M338-670V0H158v-1490h180v566c73-149 190-208 336-208 226 0 379 139 379 422V0H872v-695c0-172-96-275-252-275-161 0-282 109-282 300" id="v"/><path fill="#5a6c86" d="M481 0L54-1118h197c107 314 236 620 325 951 87-331 217-637 324-951h197L670 0H481" id="w"/><path fill="#5a6c86" d="M628 24c-324 0-524-230-524-574 0-343 198-582 503-582 237 0 487 146 487 559v75H286c9 234 145 362 343 362 132 0 231-58 273-172l174 48C1024-91 857 24 628 24zM287-650h624c-17-190-120-322-304-322-192 0-309 151-320 322" id="x"/><g id="b"><use transform="matrix(0.010850694444444444,0,0,0.010850694444444444,0,0)" xlink:href="#q"/><use transform="matrix(0.010850694444444444,0,0,0.010850694444444444,12.47829861111111,0)" xlink:href="#t"/><use transform="matrix(0.010850694444444444,0,0,0.010850694444444444,20.475260416666664,0)" xlink:href="#u"/><use transform="matrix(0.010850694444444444,0,0,0.010850694444444444,33.170572916666664,0)" xlink:href="#v"/><use transform="matrix(0.010850694444444444,0,0,0.010850694444444444,46.310763888888886,0)" xlink:href="#r"/><use transform="matrix(0.010850694444444444,0,0,0.010850694444444444,51.69270833333333,0)" xlink:href="#w"/><use transform="matrix(0.010850694444444444,0,0,0.010850694444444444,63.74782986111111,0)" xlink:href="#x"/></g><path d="M180 0v-1490h908v168H370v486h669v168H370v500h727V0H180" id="y"/><path d="M158 0v-1118h175l1 205c55-151 181-225 313-225 147 0 245 90 285 228 53-141 190-228 352-228 194 0 352 125 352 384V0h-181v-749c0-161-105-225-225-225-151 0-243 103-243 244V0H807v-767c0-124-93-207-219-207-131 0-250 92-250 270V0H158" id="z"/><path d="M471 26C259 26 90-98 90-318c0-256 228-303 435-329 202-27 287-16 287-108 0-139-79-219-234-219-161 0-248 86-283 164l-173-57c86-203 278-265 451-265 150 0 419 46 419 395V0H815v-152h-12C765-73 660 26 471 26zm31-159c199 0 310-134 310-271v-155c-30 35-226 55-295 64-131 17-246 59-246 186 0 116 97 176 231 176" id="A"/><path d="M158 0v-1118h180V0H158zm91-1301c-68 0-125-53-125-119s57-119 125-119c69 0 126 53 126 119s-57 119-126 119" id="B"/><path d="M338-1490V0H158v-1490h180" id="C"/><g id="c"><use transform="matrix(0.010850694444444444,0,0,0.010850694444444444,0,0)" xlink:href="#y"/><use transform="matrix(0.010850694444444444,0,0,0.010850694444444444,13.35720486111111,0)" xlink:href="#z"/><use transform="matrix(0.010850694444444444,0,0,0.010850694444444444,32.82335069444444,0)" xlink:href="#A"/><use transform="matrix(0.010850694444444444,0,0,0.010850694444444444,45.30164930555556,0)" xlink:href="#B"/><use transform="matrix(0.010850694444444444,0,0,0.010850694444444444,50.68359375,0)" xlink:href="#C"/></g><path d="M158 0v-1118h174v172h12c41-113 157-188 290-188 26 0 70 2 91 3v181c-11-2-60-10-108-10-161 0-279 109-279 260V0H158" id="D"/><path d="M613 24c-304 0-509-231-509-576 0-350 205-580 509-580 216 0 392 114 453 309l-173 49c-33-115-133-197-280-197-223 0-326 196-326 419 0 220 103 415 326 415 150 0 252-85 285-206l172 49C1010-95 832 24 613 24" id="E"/><path d="M338-670V0H158v-1490h180v566c73-149 190-208 336-208 226 0 379 139 379 422V0H872v-695c0-172-96-275-252-275-161 0-282 109-282 300" id="F"/><path d="M481 0L54-1118h197c107 314 236 620 325 951 87-331 217-637 324-951h197L670 0H481" id="G"/><path d="M628 24c-324 0-524-230-524-574 0-343 198-582 503-582 237 0 487 146 487 559v75H286c9 234 145 362 343 362 132 0 231-58 273-172l174 48C1024-91 857 24 628 24zM287-650h624c-17-190-120-322-304-322-192 0-309 151-320 322" id="H"/><g id="d"><use transform="matrix(0.010850694444444444,0,0,0.010850694444444444,0,0)" xlink:href="#A"/><use transform="matrix(0.010850694444444444,0,0,0.010850694444444444,12.47829861111111,0)" xlink:href="#D"/><use transform="matrix(0.010850694444444444,0,0,0.010850694444444444,20.475260416666664,0)" xlink:href="#E"/><use transform="matrix(0.010850694444444444,0,0,0.010850694444444444,33.170572916666664,0)" xlink:href="#F"/><use transform="matrix(0.010850694444444444,0,0,0.010850694444444444,46.310763888888886,0)" xlink:href="#B"/><use transform="matrix(0.010850694444444444,0,0,0.010850694444444444,51.69270833333333,0)" xlink:href="#G"/><use transform="matrix(0.010850694444444444,0,0,0.010850694444444444,63.74782986111111,0)" xlink:href="#H"/></g><path d="M657 26c-323 0-524-166-541-416h195c15 169 171 246 346 246 202 0 356-106 356-265 5-203-294-238-475-293-239-73-380-191-380-389 0-252 224-419 512-419 294 0 499 171 508 396H992c-17-145-151-228-328-228-193 0-321 102-321 242 0 156 175 211 284 241l149 41c160 44 422 134 422 412 0 244-197 432-541 432" id="I"/><path d="M598-1118v154H368v674c0 100 37 144 132 144 23 0 62-6 92-12L629-6c-37 13-88 20-134 20-193 0-307-107-307-290v-688H20v-154h168v-266h180v266h230" id="J"/><path d="M613 24c-304 0-509-231-509-576 0-350 205-580 509-580 305 0 511 230 511 580 0 345-206 576-511 576zm0-161c226 0 329-195 329-415 0-222-103-419-329-419-223 0-326 196-326 419 0 220 103 415 326 415" id="K"/><path d="M538 24C308 24 148-78 108-271l171-41c32 123 123 178 257 178 156 0 256-77 256-169 0-77-54-128-164-154l-186-44c-203-48-300-148-300-305 0-192 176-326 414-326 230 0 351 112 402 269l-163 42c-31-80-94-158-238-158-133 0-233 69-233 162 0 83 57 129 188 160l169 40c203 48 298 149 298 302 0 196-179 339-441 339" id="L"/><g id="e"><use transform="matrix(0.010850694444444444,0,0,0.010850694444444444,0,0)" xlink:href="#I"/><use transform="matrix(0.010850694444444444,0,0,0.010850694444444444,14.2578125,0)" xlink:href="#z"/><use transform="matrix(0.010850694444444444,0,0,0.010850694444444444,33.72395833333333,0)" xlink:href="#A"/><use transform="matrix(0.010850694444444444,0,0,0.010850694444444444,46.20225694444444,0)" xlink:href="#D"/><use transform="matrix(0.010850694444444444,0,0,0.010850694444444444,54.91536458333333,0)" xlink:href="#J"/><use transform="matrix(0.010850694444444444,0,0,0.010850694444444444,62.18532986111111,0)" xlink:href="#F"/><use transform="matrix(0.010850694444444444,0,0,0.010850694444444444,75.32552083333333,0)" xlink:href="#K"/><use transform="matrix(0.010850694444444444,0,0,0.010850694444444444,88.6501736111111,0)" xlink:href="#L"/><use transform="matrix(0.010850694444444444,0,0,0.010850694444444444,100.37977430555556,0)" xlink:href="#J"/></g><path d="M180 0v-1490h270l367 940c28 72 75 218 110 339 35-117 81-264 110-339l362-940h271V0h-187c2-448-5-837 7-1287-157 497-311 829-483 1287H842C666-458 514-784 354-1284c12 438 5 843 7 1284H180" id="M"/><g id="f"><use transform="matrix(0.010850694444444444,0,0,0.010850694444444444,0,0)" xlink:href="#M"/><use transform="matrix(0.010850694444444444,0,0,0.010850694444444444,20.07378472222222,0)" xlink:href="#A"/><use transform="matrix(0.010850694444444444,0,0,0.010850694444444444,32.55208333333333,0)" xlink:href="#B"/><use transform="matrix(0.010850694444444444,0,0,0.010850694444444444,37.93402777777777,0)" xlink:href="#C"/></g><g id="g"><use transform="matrix(0.010850694444444444,0,0,0.010850694444444444,0,0)" xlink:href="#L"/><use transform="matrix(0.010850694444444444,0,0,0.010850694444444444,11.729600694444445,0)" xlink:href="#H"/><use transform="matrix(0.010850694444444444,0,0,0.010850694444444444,24.68532986111111,0)" xlink:href="#D"/><use transform="matrix(0.010850694444444444,0,0,0.010850694444444444,33.3984375,0)" xlink:href="#G"/><use transform="matrix(0.010850694444444444,0,0,0.010850694444444444,45.45355902777778,0)" xlink:href="#H"/><use transform="matrix(0.010850694444444444,0,0,0.010850694444444444,58.40928819444444,0)" xlink:href="#D"/></g><path d="M98-1322v-168h1126v168H757V0H567v-1322H98" id="N"/><path d="M180 0v-1490h510c348 0 508 209 508 474 0 266-160 477-507 477H370V0H180zm190-706h312c236 0 327-133 327-310 0-176-91-307-329-307H370v617" id="O"/><g id="h"><use transform="matrix(0.010850694444444444,0,0,0.010850694444444444,0,0)" xlink:href="#I"/><use transform="matrix(0.010850694444444444,0,0,0.010850694444444444,14.2578125,0)" xlink:href="#M"/><use transform="matrix(0.010850694444444444,0,0,0.010850694444444444,34.33159722222222,0)" xlink:href="#N"/><use transform="matrix(0.010850694444444444,0,0,0.010850694444444444,48.67621527777778,0)" xlink:href="#O"/></g><path d="M180 0v-1490h510c348 0 508 194 508 460 0 198-88 351-276 417L1256 0h-220L726-579c-117 2-238 0-356 1V0H180zm190-747h312c235 0 327-108 327-283 0-177-92-293-329-293H370v576" id="P"/><g id="i"><use transform="matrix(0.010850694444444444,0,0,0.010850694444444444,0,0)" xlink:href="#P"/><use transform="matrix(0.010850694444444444,0,0,0.010850694444444444,13.975694444444445,0)" xlink:href="#H"/><use transform="matrix(0.010850694444444444,0,0,0.010850694444444444,26.931423611111104,0)" xlink:href="#L"/><use transform="matrix(0.010850694444444444,0,0,0.010850694444444444,38.66102430555555,0)" xlink:href="#J"/><use transform="matrix(0.010850694444444444,0,0,0.010850694444444444,45.71397569444444,0)" xlink:href="#K"/><use transform="matrix(0.010850694444444444,0,0,0.010850694444444444,59.03862847222222,0)" xlink:href="#D"/><use transform="matrix(0.010850694444444444,0,0,0.010850694444444444,67.03559027777777,0)" xlink:href="#H"/></g><g id="j"><use transform="matrix(0.010850694444444444,0,0,0.010850694444444444,0,0)" xlink:href="#H"/><use transform="matrix(0.010850694444444444,0,0,0.010850694444444444,12.955729166666666,0)" xlink:href="#z"/><use transform="matrix(0.010850694444444444,0,0,0.010850694444444444,32.421875,0)" xlink:href="#A"/><use transform="matrix(0.010850694444444444,0,0,0.010850694444444444,44.90017361111111,0)" xlink:href="#B"/><use transform="matrix(0.010850694444444444,0,0,0.010850694444444444,50.28211805555556,0)" xlink:href="#C"/><use transform="matrix(0.010850694444444444,0,0,0.010850694444444444,55.6640625,0)" xlink:href="#L"/></g><g id="k"><use transform="matrix(0.010850694444444444,0,0,0.010850694444444444,0,0)" xlink:href="#G"/><use transform="matrix(0.010850694444444444,0,0,0.010850694444444444,12.489149305555555,0)" xlink:href="#B"/><use transform="matrix(0.010850694444444444,0,0,0.010850694444444444,17.87109375,0)" xlink:href="#A"/></g><g id="l"><use transform="matrix(0.010850694444444444,0,0,0.010850694444444444,0,0)" xlink:href="#I"/><use transform="matrix(0.010850694444444444,0,0,0.010850694444444444,14.2578125,0)" xlink:href="#M"/><use transform="matrix(0.010850694444444444,0,0,0.010850694444444444,34.33159722222222,0)" xlink:href="#N"/><use transform="matrix(0.010850694444444444,0,0,0.010850694444444444,48.67621527777778,0)" xlink:href="#O"/></g><path d="M763 24c-353 0-583-224-583-531v-983h190v968c0 214 149 370 393 370 243 0 391-156 391-370v-968h190v983c0 307-230 531-581 531" id="Q"/><g id="m"><use transform="matrix(0.010850694444444444,0,0,0.010850694444444444,0,0)" xlink:href="#Q"/><use transform="matrix(0.010850694444444444,0,0,0.010850694444444444,16.536458333333332,0)" xlink:href="#L"/><use transform="matrix(0.010850694444444444,0,0,0.010850694444444444,28.266059027777775,0)" xlink:href="#H"/><use transform="matrix(0.010850694444444444,0,0,0.010850694444444444,41.22178819444444,0)" xlink:href="#D"/><use transform="matrix(0.010850694444444444,0,0,0.010850694444444444,49.58767361111111,0)" xlink:href="#L"/></g><path d="M180 0v-1490h190v644h782v-644h190V0h-190v-678H370V0H180" id="R"/><g id="n"><use transform="matrix(0.010850694444444444,0,0,0.010850694444444444,0,0)" xlink:href="#R"/><use transform="matrix(0.010850694444444444,0,0,0.010850694444444444,16.514756944444443,0)" xlink:href="#N"/><use transform="matrix(0.010850694444444444,0,0,0.010850694444444444,30.859375,0)" xlink:href="#N"/><use transform="matrix(0.010850694444444444,0,0,0.010850694444444444,45.20399305555556,0)" xlink:href="#O"/></g></defs></g></svg>